<?xml version="1.0" encoding="UTF-8"?>
<svg width="13px" height="13px" viewBox="0 0 13 13" version="1.1" xmlns="http://www.w3.org/2000/svg" xmlns:xlink="http://www.w3.org/1999/xlink">
    <!-- Generator: Sketch 49.3 (51167) - http://www.bohemiancoding.com/sketch -->
    <title>Login</title>
    <desc>Created with Sketch.</desc>
    <defs></defs>
    <g id="Top-Navigation" stroke="none" stroke-width="1" fill="none" fill-rule="evenodd">
        <g id="TopNAV----Fab-Centered-" transform="translate(-1231.000000, -140.000000)" fill="#C1CFDE">
            <g id="TopNav" transform="translate(210.000000, 127.000000)">
                <g id="Centered" transform="translate(389.000000, 10.000000)">
                    <g id="login" transform="translate(632.000000, 0.000000)">
                        <path d="M6.65337589,14.4957833 C6.63697561,14.4966049 6.62052425,14.4975715 6.60412397,14.4982481 C6.51829076,14.5014862 6.43230428,14.499988 6.34657325,14.4957833 C3.97425572,14.3790684 2.74627881,12.9370715 2.75000847,12.6104147 C2.75767215,11.9354498 4.17121228,10.6838213 5.1101152,10.5164575 C5.20969195,10.4987207 5.45625806,10.4957726 5.55777627,10.5054384 C5.62863976,10.5121079 5.85829469,10.5272349 6.10583153,10.5402354 C6.36828701,10.5540576 6.63166213,10.5540576 6.89411761,10.5402354 C7.14165445,10.5272349 7.37130938,10.5121079 7.44217287,10.5054384 C7.54369108,10.4957726 7.79025719,10.4987207 7.88983393,10.5164575 C8.82873685,10.6838213 10.242277,11.9354498 10.2499918,12.6104147 C10.2536703,12.9370715 9.02569342,14.3790684 6.65337589,14.4957833 M6.53769347,5 C7.81406869,5 8.84878099,6.03534937 8.84878099,7.31172459 C8.84878099,8.58809981 7.81406869,9.62275901 6.53769347,9.62275901 C5.26137134,9.62275901 4.22665904,8.58809981 4.22665904,7.31172459 C4.22665904,6.03534937 5.26137134,5 6.53769347,5 M6.5,3 C2.91014824,3 0,5.91014824 0,9.5 C0,13.0898518 2.91014824,16 6.5,16 C10.0898518,16 13,13.0898518 13,9.5 C13,5.91014824 10.0898518,3 6.5,3" id="Login"></path>
                    </g>
                </g>
            </g>
        </g>
    </g>
</svg>