<svg width="1158" height="533" viewBox="0 0 1158 533" fill="none" xmlns="http://www.w3.org/2000/svg">
<rect width="1158" height="533" fill="white"/>
<path d="M1088.13 469.696H312" stroke="#007CEA" stroke-width="0.75" stroke-miterlimit="3" stroke-linecap="square"/>
<path d="M930.731 267.676C901.618 262.325 880.753 271.584 864.477 285.832C848.199 300.081 843.045 322.414 793.579 332.506C744.111 342.6 727.201 366.274 723.735 396.149C720.27 426.028 743.707 469.694 798.588 469.694H907.345C927.292 469.694 972.229 465.098 991.487 420.971C1010.74 376.843 1013.27 282.844 930.731 267.676Z" fill="white"/>
<path d="M953.011 290.528C947.895 282.238 944.945 279.284 933.14 276.525C921.332 273.767 877.773 288.361 867.16 294.796C856.548 301.231 840.862 323.294 822.293 334.806C803.722 346.318 758.098 354.477 750.827 405.651C745.447 443.528 766.584 461.418 788.351 469.157C791.636 469.505 795.044 469.696 798.588 469.696H850.943C856.565 453.079 872.675 425.036 906.967 395.538C954.346 354.782 958.129 298.818 953.011 290.528Z" fill="#DBECFF"/>
<path d="M930.731 267.676C901.618 262.325 880.753 271.584 864.477 285.832C848.199 300.081 843.045 322.414 793.579 332.506C744.111 342.6 727.201 366.274 723.735 396.149C720.27 426.028 743.707 469.694 798.588 469.694H907.345C927.292 469.694 972.229 465.098 991.487 420.971C1010.74 376.843 1013.27 282.844 930.731 267.676Z" stroke="#007CEA" stroke-width="0.75" stroke-miterlimit="3" stroke-linecap="square"/>
<path d="M722.332 412.854L700.593 441.305L703.053 451.465L713.621 456.444C713.621 456.444 714.849 452.185 717.752 448.416C720.652 444.649 736.5 424.958 736.5 424.958L722.332 412.854Z" fill="white"/>
<path d="M722.332 412.854L700.593 441.305L703.053 451.465L713.621 456.444C713.621 456.444 714.849 452.185 717.752 448.416C720.652 444.649 736.5 424.958 736.5 424.958L722.332 412.854Z" stroke="#007CEA" stroke-width="0.75" stroke-miterlimit="3" stroke-linecap="square"/>
<path d="M708.52 472.381L704.741 478L645.195 442.994L648.973 437.372L667.742 448.414L708.52 472.381Z" fill="white"/>
<path d="M692.277 435.848C697.47 435.272 699.26 433.299 700.927 434.444C702.61 435.612 703.255 439.097 699.942 441.303C698.973 440.695 697.775 440.318 696.019 440.065C692.366 439.51 677.592 437.658 674.296 437.372C671.002 437.084 670.412 439.329 670.412 439.329C670.428 437.425 670.088 436.115 669.892 435.523C669.892 435.523 670.75 433.889 673.669 434.374C676.57 434.859 687.102 436.403 692.277 435.848Z" fill="#DBECFF"/>
<path d="M674.298 437.372C677.593 437.658 692.368 439.51 696.021 440.065C697.776 440.318 698.975 440.695 699.942 441.303C701 441.949 701.769 442.885 702.612 444.32C704.241 447.085 706.696 449.995 709.83 451.736C712.961 453.476 714.645 453.081 714.825 455.828C714.986 458.573 713.159 466.545 708.521 472.381L667.744 448.414C669.804 444.751 670.377 441.628 670.412 439.329C670.412 439.329 671.004 437.084 674.298 437.372Z" fill="white"/>
<path d="M669.892 435.525C670.088 436.117 670.428 437.427 670.41 439.331C670.375 441.63 669.802 444.752 667.742 448.416L648.973 437.374C648.973 437.374 653.81 429.188 669.765 435.186C669.765 435.186 669.818 435.309 669.892 435.525Z" fill="white"/>
<path d="M708.52 472.381L667.742 448.414L648.973 437.372L645.195 442.994L704.741 478L708.52 472.381Z" stroke="#007CEA" stroke-width="0.75" stroke-miterlimit="3" stroke-linecap="square"/>
<path d="M648.973 437.372C648.973 437.372 653.81 429.186 669.765 435.184C669.765 435.184 669.818 435.307 669.892 435.523C670.088 436.115 670.428 437.425 670.41 439.329C670.375 441.628 669.802 444.751 667.742 448.414" stroke="#007CEA" stroke-width="0.75" stroke-miterlimit="3" stroke-linecap="square"/>
<path d="M670.412 439.331C670.412 439.331 671.003 437.086 674.298 437.374C677.594 437.66 692.368 439.511 696.021 440.066C697.777 440.318 698.975 440.695 699.942 441.305C701 441.951 701.769 442.885 702.61 444.322C704.241 447.087 706.694 449.995 709.83 451.736C712.961 453.478 714.645 453.083 714.825 455.83C714.986 458.575 713.159 466.547 708.52 472.381" stroke="#007CEA" stroke-width="0.75" stroke-miterlimit="3" stroke-linecap="square"/>
<path d="M669.892 435.525C669.892 435.525 670.75 433.889 673.669 434.376C676.57 434.859 687.101 436.404 692.277 435.849C697.47 435.272 699.26 433.299 700.927 434.446C702.61 435.614 703.255 439.097 699.94 441.305" stroke="#007CEA" stroke-width="0.75" stroke-miterlimit="3" stroke-linecap="square"/>
<path d="M677.886 440.792C677.952 441.554 677.39 442.225 676.63 442.292C675.871 442.36 675.2 441.796 675.135 441.034L674.517 433.956C674.449 433.196 675.011 432.523 675.77 432.456C676.53 432.391 677.199 432.953 677.266 433.714L677.886 440.792Z" fill="white"/>
<path d="M677.886 440.792C677.952 441.554 677.39 442.225 676.63 442.292C675.871 442.36 675.2 441.796 675.135 441.034L674.517 433.956C674.449 433.196 675.011 432.523 675.77 432.456C676.53 432.391 677.199 432.953 677.266 433.714L677.886 440.792Z" stroke="#007CEA" stroke-width="0.75" stroke-miterlimit="3" stroke-linecap="square"/>
<path d="M683.653 441.846C683.722 442.608 683.159 443.281 682.401 443.347C681.638 443.412 680.967 442.849 680.903 442.088L680.176 434.404C680.107 433.642 680.668 432.971 681.428 432.901C682.189 432.839 682.858 433.399 682.924 434.162L683.653 441.846Z" fill="white"/>
<path d="M683.653 441.846C683.722 442.608 683.159 443.281 682.401 443.347C681.638 443.412 680.967 442.849 680.903 442.088L680.176 434.404C680.107 433.642 680.668 432.971 681.428 432.901C682.189 432.839 682.858 433.399 682.924 434.162L683.653 441.846Z" stroke="#007CEA" stroke-width="0.75" stroke-miterlimit="3" stroke-linecap="square"/>
<path d="M689.423 442.901C689.488 443.665 688.927 444.336 688.167 444.401C687.408 444.47 686.737 443.904 686.67 443.144L685.833 434.854C685.766 434.092 686.327 433.422 687.087 433.352C687.848 433.287 688.517 433.851 688.584 434.611L689.423 442.901Z" fill="white"/>
<path d="M689.423 442.901C689.488 443.665 688.927 444.336 688.167 444.401C687.408 444.47 686.737 443.904 686.67 443.144L685.833 434.854C685.766 434.092 686.327 433.422 687.087 433.352C687.848 433.287 688.517 433.851 688.584 434.611L689.423 442.901Z" stroke="#007CEA" stroke-width="0.75" stroke-miterlimit="3" stroke-linecap="square"/>
<path d="M695.191 443.957C695.257 444.716 694.697 445.388 693.936 445.457C693.178 445.525 692.505 444.96 692.44 444.197L691.492 435.302C691.426 434.541 691.986 433.868 692.747 433.802C693.505 433.737 694.176 434.299 694.241 435.059L695.191 443.957Z" fill="white"/>
<path d="M695.191 443.957C695.257 444.716 694.697 445.388 693.936 445.457C693.178 445.525 692.505 444.96 692.44 444.197L691.492 435.302C691.426 434.541 691.986 433.868 692.747 433.802C693.505 433.737 694.176 434.299 694.241 435.059L695.191 443.957Z" stroke="#007CEA" stroke-width="0.75" stroke-miterlimit="3" stroke-linecap="square"/>
<path d="M771.695 337.104L719.088 415.151L739.604 433.384L786.051 375.006C786.051 375.006 814.463 387.417 821.191 387.417H855.122C858.332 387.417 871.338 385.246 876.174 371.789C878.613 364.988 882.401 347.927 860.937 337.104H771.695Z" fill="white"/>
<path d="M860.935 337.104H771.693L752.714 365.26L776.963 386.426L786.051 375.006C786.051 375.006 814.463 387.417 821.189 387.417H855.122C858.331 387.417 871.337 385.246 876.172 371.789C878.613 364.988 882.4 347.927 860.935 337.104Z" fill="#DBECFF"/>
<path d="M771.695 337.104L719.088 415.151L739.604 433.384L786.051 375.006C786.051 375.006 814.463 387.417 821.191 387.417H855.122C858.332 387.417 871.338 385.246 876.174 371.789C878.613 364.988 882.401 347.927 860.937 337.104H771.695Z" stroke="#007CEA" stroke-width="0.75" stroke-miterlimit="3" stroke-linecap="square"/>
<path d="M786.051 375.006C786.051 375.006 790.208 362.482 786.198 352.485" stroke="#007CEA" stroke-width="0.75" stroke-miterlimit="3" stroke-linecap="square"/>
<path d="M723.736 408.252L744.444 427.298" stroke="#007CEA" stroke-width="0.75" stroke-miterlimit="3" stroke-linecap="square"/>
<path d="M932.562 213.953C930.389 229.754 929.356 234.58 934.286 242.51C939.214 250.438 944.374 262.506 935.316 270.894H893.019V212.747L932.562 213.953Z" fill="#007CEA"/>
<path d="M932.562 213.953C930.389 229.754 929.356 234.58 934.286 242.51C939.214 250.438 944.374 262.506 935.316 270.894H893.019V212.747L932.562 213.953Z" stroke="#007CEA" stroke-width="0.75" stroke-miterlimit="3" stroke-linecap="square"/>
<path d="M889.03 253.143C886.257 255.573 876.857 259.938 874.793 261.317C872.729 262.695 862.566 275.72 861.189 281.465C859.814 287.21 861.114 298.551 860.043 306.058C858.976 313.564 848.659 343.06 848.659 343.06L899.553 371.789C899.553 371.789 902.536 361.829 903.146 353.709C903.757 345.589 905.742 338.692 912.011 330.265C918.276 321.838 937.497 289.165 938.987 280.433C940.477 271.698 939.375 267.906 933.867 262.925C930.4 259.792 919.576 254.423 919.576 254.423L889.03 253.143Z" fill="white"/>
<path d="M889.03 253.143C886.257 255.573 876.857 259.938 874.793 261.317C872.729 262.695 862.566 275.72 861.189 281.465C859.814 287.21 861.114 298.551 860.043 306.058C858.976 313.564 848.659 343.06 848.659 343.06L899.553 371.789C899.553 371.789 902.536 361.829 903.146 353.709C903.757 345.589 905.742 338.692 912.011 330.265C918.276 321.838 937.497 289.165 938.987 280.433C940.477 271.698 939.375 267.906 933.867 262.925C930.4 259.792 919.576 254.423 919.576 254.423L889.03 253.143Z" stroke="#007CEA" stroke-width="0.75" stroke-miterlimit="3" stroke-linecap="square"/>
<path d="M751.833 412.854L734.334 441.305L738.306 451.465L749.615 456.444C749.615 456.444 750.211 452.185 752.551 448.416C754.888 444.649 767.802 424.958 767.802 424.958L751.833 412.854Z" fill="white"/>
<path d="M751.833 412.854L734.334 441.305L738.306 451.465L749.615 456.444C749.615 456.444 750.211 452.185 752.551 448.416C754.888 444.649 767.802 424.958 767.802 424.958L751.833 412.854Z" stroke="#007CEA" stroke-width="0.75" stroke-miterlimit="3" stroke-linecap="square"/>
<path d="M744.513 472.381L740.735 478L681.188 442.994L684.968 437.372L703.735 448.414L744.513 472.381Z" fill="white"/>
<path d="M728.273 435.848C733.464 435.272 735.256 433.299 736.923 434.444C738.603 435.612 739.251 439.097 735.934 441.303C734.969 440.695 733.769 440.318 732.013 440.065C728.362 439.51 713.586 437.658 710.29 437.372C706.995 437.084 706.408 439.329 706.408 439.329C706.424 437.425 706.082 436.115 705.888 435.523C705.888 435.523 706.746 433.889 709.665 434.374C712.566 434.859 723.096 436.403 728.273 435.848Z" fill="#DBECFF"/>
<path d="M710.291 437.372C713.586 437.658 728.361 439.51 732.012 440.065C733.768 440.318 734.97 440.695 735.935 441.303C736.991 441.949 737.762 442.885 738.603 444.32C740.236 447.085 742.689 449.995 745.82 451.736C748.954 453.476 750.638 453.081 750.818 455.828C750.981 458.573 749.154 466.545 744.513 472.381L703.735 448.414C705.799 444.751 706.37 441.628 706.407 439.329C706.407 439.329 706.995 437.084 710.291 437.372Z" fill="white"/>
<path d="M705.886 435.525C706.081 436.117 706.424 437.427 706.407 439.331C706.368 441.63 705.797 444.752 703.733 448.416L684.967 437.374C684.967 437.374 689.803 429.188 705.76 435.186C705.76 435.186 705.814 435.309 705.886 435.525Z" fill="white"/>
<path d="M744.513 472.381L703.735 448.414L684.968 437.372L681.188 442.994L740.735 478L744.513 472.381Z" stroke="#007CEA" stroke-width="0.75" stroke-miterlimit="3" stroke-linecap="square"/>
<path d="M684.967 437.372C684.967 437.372 689.803 429.186 705.76 435.184C705.76 435.184 705.814 435.307 705.886 435.523C706.081 436.115 706.424 437.425 706.407 439.329C706.368 441.628 705.797 444.751 703.733 448.414" stroke="#007CEA" stroke-width="0.75" stroke-miterlimit="3" stroke-linecap="square"/>
<path d="M706.407 439.331C706.407 439.331 706.995 437.086 710.291 437.374C713.586 437.66 728.361 439.511 732.012 440.066C733.768 440.318 734.97 440.695 735.935 441.305C736.991 441.951 737.761 442.885 738.603 444.322C740.236 447.087 742.689 449.995 745.82 451.736C748.954 453.478 750.638 453.083 750.818 455.83C750.979 458.575 749.152 466.547 744.513 472.381" stroke="#007CEA" stroke-width="0.75" stroke-miterlimit="3" stroke-linecap="square"/>
<path d="M705.886 435.525C705.886 435.525 706.745 433.889 709.664 434.376C712.567 434.859 723.094 436.404 728.272 435.849C733.463 435.272 735.257 433.299 736.921 434.446C738.603 435.614 739.25 439.097 735.933 441.305" stroke="#007CEA" stroke-width="0.75" stroke-miterlimit="3" stroke-linecap="square"/>
<path d="M713.881 440.792C713.946 441.554 713.385 442.225 712.625 442.292C711.866 442.36 711.195 441.796 711.13 441.034L710.51 433.956C710.442 433.196 711.006 432.523 711.766 432.456C712.527 432.391 713.192 432.953 713.261 433.714L713.881 440.792Z" fill="white"/>
<path d="M713.881 440.792C713.946 441.554 713.385 442.225 712.625 442.292C711.866 442.36 711.195 441.796 711.13 441.034L710.51 433.956C710.442 433.196 711.006 432.523 711.766 432.456C712.527 432.391 713.192 432.953 713.261 433.714L713.881 440.792Z" stroke="#007CEA" stroke-width="0.75" stroke-miterlimit="3" stroke-linecap="square"/>
<path d="M719.647 441.846C719.715 442.608 719.154 443.281 718.394 443.347C717.635 443.412 716.964 442.849 716.9 442.088L716.171 434.404C716.102 433.642 716.663 432.971 717.422 432.901C718.182 432.839 718.853 433.399 718.918 434.162L719.647 441.846Z" fill="white"/>
<path d="M719.647 441.846C719.715 442.608 719.154 443.281 718.394 443.347C717.635 443.412 716.964 442.849 716.9 442.088L716.171 434.404C716.102 433.642 716.663 432.971 717.422 432.901C718.182 432.839 718.853 433.399 718.918 434.162L719.647 441.846Z" stroke="#007CEA" stroke-width="0.75" stroke-miterlimit="3" stroke-linecap="square"/>
<path d="M725.418 442.901C725.485 443.665 724.922 444.336 724.164 444.401C723.405 444.47 722.73 443.904 722.666 443.144L721.83 434.854C721.762 434.092 722.322 433.422 723.083 433.352C723.843 433.287 724.512 433.851 724.579 434.611L725.418 442.901Z" fill="white"/>
<path d="M725.418 442.901C725.485 443.665 724.922 444.336 724.164 444.401C723.405 444.47 722.73 443.904 722.666 443.144L721.83 434.854C721.762 434.092 722.322 433.422 723.083 433.352C723.843 433.287 724.512 433.851 724.579 434.611L725.418 442.901Z" stroke="#007CEA" stroke-width="0.75" stroke-miterlimit="3" stroke-linecap="square"/>
<path d="M731.185 443.957C731.254 444.716 730.691 445.388 729.929 445.457C729.17 445.525 728.499 444.96 728.435 444.197L727.487 435.302C727.42 434.541 727.981 433.868 728.741 433.802C729.502 433.737 730.169 434.299 730.237 435.059L731.185 443.957Z" fill="white"/>
<path d="M731.185 443.957C731.254 444.716 730.691 445.388 729.929 445.457C729.17 445.525 728.499 444.96 728.435 444.197L727.487 435.302C727.42 434.541 727.981 433.868 728.741 433.802C729.502 433.737 730.169 434.299 730.237 435.059L731.185 443.957Z" stroke="#007CEA" stroke-width="0.75" stroke-miterlimit="3" stroke-linecap="square"/>
<path d="M789.907 337.104L748.926 415.151L772.161 433.384L809.912 375.006C809.912 375.006 840.172 387.417 846.898 387.417H880.829C884.041 387.417 896.725 385.246 899.551 371.789C900.981 364.988 902.226 347.927 879.149 337.104H789.907Z" fill="white"/>
<path d="M789.907 337.104L748.926 415.151L772.161 433.384L809.912 375.006C809.912 375.006 840.172 387.417 846.898 387.417H880.829C884.041 387.417 896.725 385.246 899.551 371.789C900.981 364.988 902.226 347.927 879.149 337.104H789.907Z" stroke="#007CEA" stroke-width="0.75" stroke-miterlimit="3" stroke-linecap="square"/>
<path d="M809.911 375.006C809.911 375.006 812.205 362.482 806.702 352.485" stroke="#007CEA" stroke-width="0.75" stroke-miterlimit="3" stroke-linecap="square"/>
<path d="M752.551 408.252L776.096 427.298" stroke="#007CEA" stroke-width="0.75" stroke-miterlimit="3" stroke-linecap="square"/>
<path d="M915.219 229.602C915.219 229.602 914.229 239.099 914.607 244.542C914.989 249.981 919.574 254.425 919.574 254.425C919.574 254.425 912.24 266.45 895.425 263.312C888.127 261.949 887.402 255.343 888.471 253.81C889.543 252.28 896.038 247.327 896.038 229.602H915.219Z" fill="white"/>
<path d="M914.522 241.329C914.55 236.024 915.217 229.601 915.217 229.601H896.037C896.037 247.327 889.542 252.278 888.471 253.81C887.962 254.541 887.872 256.425 888.694 258.345C900.981 256.441 910.48 246.351 914.522 241.329Z" fill="#DBECFF"/>
<path d="M915.219 229.602C915.219 229.602 914.229 239.099 914.607 244.542C914.989 249.981 919.574 254.425 919.574 254.425C919.574 254.425 912.24 266.45 895.425 263.312C888.127 261.949 887.402 255.343 888.471 253.81C889.543 252.28 896.038 247.327 896.038 229.602H915.219Z" stroke="#007CEA" stroke-width="0.75" stroke-miterlimit="3" stroke-linecap="square"/>
<path d="M884.356 186.454C870.818 194.437 857.675 214.905 881.824 218.422H889.314V186.454H884.356Z" fill="#007CEA"/>
<path d="M884.356 186.454C870.818 194.437 857.675 214.905 881.824 218.422H889.314V186.454H884.356Z" stroke="#007CEA" stroke-width="0.75" stroke-miterlimit="3" stroke-linecap="square"/>
<path d="M888.891 191.374C879.912 197.273 878.001 205.737 878.001 214.7C878.001 223.664 878.057 223.952 877.6 228.549C877.141 233.145 881.473 244.846 887.096 245.777C893.515 246.839 907.862 243.716 914.169 233.777C921.274 231.478 927.029 225.745 927.6 210.91C928.287 192.984 906.257 179.963 888.891 191.374Z" fill="white"/>
<path d="M888.891 191.374C879.912 197.273 878.001 205.737 878.001 214.7C878.001 223.664 878.057 223.952 877.6 228.549C877.141 233.145 881.473 244.846 887.096 245.777C893.515 246.839 907.862 243.716 914.169 233.777C921.274 231.478 927.029 225.745 927.6 210.91C928.287 192.984 906.257 179.963 888.891 191.374Z" stroke="#007CEA" stroke-width="0.75" stroke-miterlimit="3" stroke-linecap="square"/>
<path d="M883.427 187.087C880.419 189.347 884.268 204.857 898.254 213.822C911.154 222.091 922.097 222.709 922.097 222.709C922.097 222.709 930.605 223.074 932.031 217.039C934.095 208.305 932.26 194.135 917.512 186.091C904.647 179.073 888.93 182.951 883.427 187.087Z" fill="#007CEA"/>
<path d="M883.427 187.087C880.419 189.347 884.268 204.857 898.254 213.822C911.154 222.091 922.097 222.709 922.097 222.709C922.097 222.709 930.605 223.074 932.031 217.039C934.095 208.305 932.26 194.135 917.512 186.091C904.647 179.073 888.93 182.951 883.427 187.087Z" stroke="#007CEA" stroke-width="0.75" stroke-miterlimit="3" stroke-linecap="square"/>
<path d="M916.346 223.204C916.346 223.204 919.156 218.147 923.623 218.435C928.096 218.722 926.434 225.791 923.623 229.353C920.817 232.915 916.116 234.006 914.17 233.777C914.17 233.777 914.112 228.549 916.346 223.204Z" fill="white"/>
<path d="M916.345 223.204C916.345 223.204 919.156 218.147 923.623 218.435C928.096 218.722 926.434 225.791 923.623 229.353C920.817 232.915 916.116 234.006 914.169 233.777" stroke="#007CEA" stroke-width="0.75" stroke-miterlimit="3" stroke-linecap="square"/>
<path d="M898.675 220.22C898.675 221.597 897.802 222.712 896.725 222.712C895.649 222.712 894.776 221.597 894.776 220.22C894.776 218.845 895.649 217.728 896.725 217.728C897.802 217.728 898.675 218.845 898.675 220.22Z" fill="#007CEA"/>
<path d="M882.471 220.22C882.471 221.428 881.761 222.407 880.885 222.407C880.009 222.407 879.299 221.428 879.299 220.22C879.299 219.013 880.009 218.033 880.885 218.033C881.761 218.033 882.471 219.013 882.471 220.22Z" fill="#007CEA"/>
<path d="M885.454 230.33C885.454 230.33 884.137 229.583 884.825 227.4" stroke="#007CEA" stroke-width="0.75" stroke-miterlimit="3" stroke-linecap="square"/>
<path d="M885.039 236.419C885.039 236.419 888.949 237.683 893.019 235.328" stroke="#EA698B" stroke-width="0.75" stroke-miterlimit="3" stroke-linecap="square"/>
<path d="M893.536 213.953C893.536 213.953 895.6 212.861 900.469 213.953" stroke="#007CEA" stroke-width="0.75" stroke-miterlimit="3" stroke-linecap="square"/>
<path d="M882.47 213.469C882.47 213.469 881.211 212.745 879.55 212.747" stroke="#007CEA" stroke-width="0.75" stroke-miterlimit="3" stroke-linecap="square"/>
<path d="M877.57 242.703H885.041C886.6 242.703 888.052 243.123 889.2 244.234C890.346 245.346 893.137 247.412 893.785 247.949C894.433 248.487 895.542 249.022 895.388 249.556C895.237 250.095 893.468 251.374 891.141 250.448C888.818 249.521 887.709 248.639 886.945 248.372C886.179 248.102 884.079 248.102 884.079 248.102V258.368C884.079 259.132 879.15 264.652 878.271 265.149C877.391 265.644 874.716 265.34 874.105 265.149C873.495 264.958 869.292 263.833 869.292 263.833C869.292 263.833 861.114 291.656 859.433 297.552C857.75 303.453 849.422 307.844 844.303 307.294C839.182 306.748 838.492 298.01 839.105 294.029C839.718 290.045 862.415 254.546 863.636 253.141C864.858 251.739 876.447 242.703 877.57 242.703Z" fill="white"/>
<path d="M877.57 242.703H885.041C886.6 242.703 888.052 243.123 889.2 244.234C890.346 245.346 893.137 247.412 893.785 247.949C894.433 248.487 895.542 249.022 895.388 249.556C895.237 250.095 893.468 251.374 891.141 250.448C888.818 249.521 887.709 248.639 886.945 248.372C886.179 248.102 884.079 248.102 884.079 248.102V258.368C884.079 259.132 879.15 264.652 878.271 265.149C877.391 265.644 874.716 265.34 874.105 265.149C873.495 264.958 869.292 263.833 869.292 263.833C869.292 263.833 861.114 291.656 859.433 297.552C857.75 303.453 849.422 307.844 844.303 307.294C839.182 306.748 838.492 298.01 839.105 294.029C839.718 290.045 862.415 254.546 863.636 253.141C864.858 251.739 876.447 242.703 877.57 242.703Z" stroke="#007CEA" stroke-width="0.75" stroke-miterlimit="3" stroke-linecap="square"/>
<path d="M871.697 332.506H831.347L834.902 337.103H875.25L871.697 332.506Z" fill="#DBECFF"/>
<path d="M871.697 332.506H831.347L834.902 337.103H875.25L871.697 332.506Z" stroke="#007CEA" stroke-width="0.75" stroke-miterlimit="3" stroke-linecap="square"/>
<path d="M834.902 337.105H763.83L744.917 277.579H815.986L834.902 337.105Z" fill="white"/>
<path d="M834.902 337.105H763.83L744.917 277.579H815.986L834.902 337.105Z" stroke="#007CEA" stroke-width="0.75" stroke-miterlimit="3" stroke-linecap="square"/>
<path d="M787.957 314.177L785.257 312.688C778.831 309.151 778.13 306.565 777.862 305.592C777.226 303.251 778.602 301.351 780.939 301.351C782.41 301.351 783.912 302.106 784.981 303.249C785.429 302.106 786.519 301.351 787.989 301.351C790.326 301.351 792.739 303.251 793.374 305.592C793.641 306.565 794.343 309.151 789.849 312.688L787.957 314.177Z" fill="#007CEA"/>
<path d="M914.169 302.534L911.359 322.032L867.228 330.19C867.228 330.19 858.859 319.963 858.17 319.33C857.483 318.698 850.376 317.493 849.458 317.493C848.541 317.493 841.034 321.227 839.829 322.088C838.627 322.95 836.619 329.501 836.277 330.19C835.932 330.88 835.703 332.489 837.136 332.489H846.02C846.88 332.489 855.076 338.75 856.681 340.015C858.288 341.279 860.292 342.946 868.258 341.279C875.021 341.567 911.168 341.378 916.671 341.223C922.173 341.069 926.377 339.999 927.83 334.788C929.28 329.577 936.313 302.534 936.313 302.534H914.169Z" fill="white"/>
<path d="M912.861 311.611C915.685 312.939 921.677 315.219 932.504 317.133C934.486 309.556 936.313 302.534 936.313 302.534H914.17L912.861 311.611Z" fill="#DBECFF"/>
<path d="M914.169 302.534L911.359 322.032L867.228 330.19C867.228 330.19 858.859 319.963 858.17 319.33C857.483 318.698 850.376 317.493 849.458 317.493C848.541 317.493 841.034 321.227 839.829 322.088C838.627 322.95 836.619 329.501 836.277 330.19C835.932 330.88 835.703 332.489 837.136 332.489H846.02C846.88 332.489 855.076 338.75 856.681 340.015C858.288 341.279 860.292 342.946 868.258 341.279C875.021 341.567 911.168 341.378 916.671 341.223C922.173 341.069 926.377 339.999 927.83 334.788C929.28 329.577 936.313 302.534 936.313 302.534H914.169Z" stroke="#007CEA" stroke-width="0.75" stroke-miterlimit="3" stroke-linecap="square"/>
<path d="M914.169 284.797L912.239 306.748C912.239 306.748 929.739 307.974 941.124 306.748C941.124 306.748 943.472 284.795 938.974 270.032C935.624 270.281 915.448 265.839 914.169 284.797Z" fill="white"/>
<path d="M914.169 284.797L912.239 306.748C912.239 306.748 929.739 307.974 941.124 306.748C941.124 306.748 943.472 284.796 938.974 270.032" stroke="#007CEA" stroke-width="0.75" stroke-miterlimit="3" stroke-linecap="square"/>
<path d="M945.175 275.021L940.807 278.666C940.807 278.666 959.848 286.139 952.97 306.365C945.452 328.47 912.16 336.244 880.065 347.736C847.97 359.227 824.031 380.521 815.404 410.247C807.37 437.927 819.872 465.609 843.293 469.285C849.034 468.502 949.073 451.769 949.073 451.769L975.134 322.258C976.355 287.279 945.175 275.021 945.175 275.021Z" fill="white"/>
<path d="M848.659 469.696C821.834 469.696 806.776 439.973 815.406 410.247C824.031 380.523 847.97 359.229 880.067 347.737C912.162 336.246 945.453 328.47 952.971 306.365C959.85 286.139 940.809 278.666 940.809 278.666" stroke="#007CEA" stroke-width="0.75" stroke-miterlimit="3" stroke-linecap="square"/>
<path d="M1010.75 171.452C1010.75 177.857 1005.57 183.051 999.18 183.051C992.789 183.051 987.608 177.857 987.608 171.452C987.608 165.046 992.789 159.853 999.18 159.853C1005.57 159.853 1010.75 165.046 1010.75 171.452Z" fill="white"/>
<path d="M1010.75 171.452C1010.75 177.857 1005.57 183.051 999.18 183.051C992.789 183.051 987.608 177.857 987.608 171.452C987.608 165.046 992.789 159.853 999.18 159.853C1005.57 159.853 1010.75 165.046 1010.75 171.452Z" stroke="#007CEA" stroke-width="0.75" stroke-miterlimit="3" stroke-linecap="square"/>
<path d="M999.181 187.078V191.395" stroke="#007CEA" stroke-width="0.75" stroke-miterlimit="3" stroke-linecap="square"/>
<path d="M1006.98 184.984L1009.13 188.722" stroke="#007CEA" stroke-width="0.75" stroke-miterlimit="3" stroke-linecap="square"/>
<path d="M1012.68 179.264L1016.41 181.423" stroke="#007CEA" stroke-width="0.75" stroke-miterlimit="3" stroke-linecap="square"/>
<path d="M1014.77 171.45H1019.07" stroke="#007CEA" stroke-width="0.75" stroke-miterlimit="3" stroke-linecap="square"/>
<path d="M1012.68 163.636L1016.41 161.478" stroke="#007CEA" stroke-width="0.75" stroke-miterlimit="3" stroke-linecap="square"/>
<path d="M1006.98 157.916L1009.13 154.178" stroke="#007CEA" stroke-width="0.75" stroke-miterlimit="3" stroke-linecap="square"/>
<path d="M999.181 155.824V151.507" stroke="#007CEA" stroke-width="0.75" stroke-miterlimit="3" stroke-linecap="square"/>
<path d="M991.384 157.916L989.231 154.178" stroke="#007CEA" stroke-width="0.75" stroke-miterlimit="3" stroke-linecap="square"/>
<path d="M985.678 163.638L981.951 161.479" stroke="#007CEA" stroke-width="0.75" stroke-miterlimit="3" stroke-linecap="square"/>
<path d="M983.589 171.452L979.285 171.45" stroke="#007CEA" stroke-width="0.75" stroke-miterlimit="3" stroke-linecap="square"/>
<path d="M985.679 179.266L981.951 181.423" stroke="#007CEA" stroke-width="0.75" stroke-miterlimit="3" stroke-linecap="square"/>
<path d="M991.384 184.986L989.231 188.722" stroke="#007CEA" stroke-width="0.75" stroke-miterlimit="3" stroke-linecap="square"/>
<path d="M999.18 54V144.539" stroke="#007CEA" stroke-width="0.75" stroke-miterlimit="3" stroke-linecap="square"/>
<path d="M963.484 174.123C956.738 174.123 955.736 170.944 961.259 167.061L989.142 147.45C994.664 143.568 1003.7 143.568 1009.22 147.45L1037.1 167.061C1042.62 170.944 1041.62 174.123 1034.88 174.123H963.484Z" fill="white"/>
<path d="M963.484 174.123C956.738 174.123 955.736 170.944 961.259 167.061L989.142 147.45C994.664 143.568 1003.7 143.568 1009.22 147.45L1037.1 167.061C1042.62 170.944 1041.62 174.123 1034.88 174.123H963.484Z" stroke="#007CEA" stroke-width="0.75" stroke-miterlimit="3" stroke-linecap="square"/>
<path d="M993.447 432.913C985.873 427.683 990.454 419.056 986.943 413.34C983.432 407.629 985.69 401.764 989.282 397.997C992.874 394.23 993.758 391.139 991.22 385.803C988.685 380.465 991.546 373.946 993.928 370.962C996.313 367.976 1002.05 363.868 1004.37 351.222C1006.7 338.577 1023.73 332.789 1023.73 332.789C1023.73 332.789 1034.69 347.089 1029.62 358.897C1024.55 370.703 1027.04 377.316 1027.37 381.126C1027.7 384.935 1026.46 391.95 1021.4 394.974C1016.33 398.001 1015.36 401.064 1016.26 406.196C1017.15 411.329 1015.79 417.463 1009.7 420.259C1003.62 423.056 1002.65 432.783 993.447 432.913Z" fill="white"/>
<path d="M993.447 432.913C985.873 427.683 990.454 419.056 986.943 413.34C983.432 407.629 985.69 401.764 989.282 397.997C992.874 394.23 993.758 391.139 991.22 385.803C988.685 380.465 991.546 373.946 993.928 370.962C996.313 367.976 1002.05 363.868 1004.37 351.222C1006.7 338.577 1023.73 332.789 1023.73 332.789C1023.73 332.789 1034.69 347.089 1029.62 358.897C1024.55 370.703 1027.04 377.316 1027.37 381.126C1027.7 384.935 1026.46 391.95 1021.4 394.974C1016.33 398.001 1015.36 401.064 1016.26 406.196C1017.15 411.329 1015.79 417.463 1009.7 420.259C1003.62 423.056 1002.65 432.783 993.447 432.913Z" stroke="#007CEA" stroke-width="0.75" stroke-miterlimit="3" stroke-linecap="square"/>
<path d="M993.446 432.913L1023.73 332.789" stroke="#007CEA" stroke-width="0.75" stroke-miterlimit="3" stroke-linecap="square"/>
<path d="M998.72 415.487L992.555 403.486" stroke="#007CEA" stroke-width="0.75" stroke-miterlimit="3" stroke-linecap="square"/>
<path d="M999.829 412.062L1012.35 407.105" stroke="#007CEA" stroke-width="0.75" stroke-miterlimit="3" stroke-linecap="square"/>
<path d="M1016.21 357.98L1026.48 353.916" stroke="#007CEA" stroke-width="0.75" stroke-miterlimit="3" stroke-linecap="square"/>
<path d="M1007.49 386.647L1024.05 380.096" stroke="#007CEA" stroke-width="0.75" stroke-miterlimit="3" stroke-linecap="square"/>
<path d="M1006.65 389.249L998.892 374.123" stroke="#007CEA" stroke-width="0.75" stroke-miterlimit="3" stroke-linecap="square"/>
<path d="M1014.87 362.108L1010.11 352.85" stroke="#007CEA" stroke-width="0.75" stroke-miterlimit="3" stroke-linecap="square"/>
<path d="M992.052 428.043C999.077 423.288 994.93 415.302 998.213 410.068C1001.5 404.833 999.466 399.411 996.19 395.912C992.914 392.41 992.127 389.554 994.508 384.661C996.891 379.766 994.314 373.735 992.141 370.963C989.972 368.194 984.721 364.358 982.693 352.69C980.662 341.019 965.015 335.54 965.015 335.54C965.015 335.54 954.794 348.617 959.366 359.54C963.939 370.463 961.586 376.533 961.25 380.038C960.913 383.546 961.989 390.018 966.63 392.849C971.271 395.68 972.144 398.512 971.271 403.231C970.397 407.952 971.606 413.614 977.189 416.244C982.771 418.873 983.577 427.841 992.052 428.043Z" fill="white"/>
<path d="M992.052 428.043C999.077 423.288 994.93 415.302 998.213 410.068C1001.5 404.833 999.466 399.411 996.19 395.912C992.914 392.41 992.127 389.554 994.508 384.661C996.891 379.766 994.314 373.735 992.141 370.963C989.972 368.194 984.721 364.358 982.693 352.69C980.662 341.019 965.015 335.54 965.015 335.54C965.015 335.54 954.794 348.617 959.366 359.54C963.939 370.463 961.586 376.533 961.25 380.038C960.913 383.546 961.989 390.018 966.63 392.849C971.271 395.68 972.144 398.512 971.271 403.231C970.397 407.952 971.606 413.614 977.189 416.244C982.771 418.873 983.577 427.841 992.052 428.043Z" stroke="#007CEA" stroke-width="0.75" stroke-miterlimit="3" stroke-linecap="square"/>
<path d="M992.051 428.043L965.015 335.54" stroke="#007CEA" stroke-width="0.75" stroke-miterlimit="3" stroke-linecap="square"/>
<path d="M987.348 411.941L993.129 400.939" stroke="#007CEA" stroke-width="0.75" stroke-miterlimit="3" stroke-linecap="square"/>
<path d="M986.354 408.777L974.859 404.104" stroke="#007CEA" stroke-width="0.75" stroke-miterlimit="3" stroke-linecap="square"/>
<path d="M971.734 358.815L962.303 354.979" stroke="#007CEA" stroke-width="0.75" stroke-miterlimit="3" stroke-linecap="square"/>
<path d="M979.517 385.299L964.315 379.116" stroke="#007CEA" stroke-width="0.75" stroke-miterlimit="3" stroke-linecap="square"/>
<path d="M980.262 387.701L987.542 373.833" stroke="#007CEA" stroke-width="0.75" stroke-miterlimit="3" stroke-linecap="square"/>
<path d="M972.932 362.626L977.396 354.139" stroke="#007CEA" stroke-width="0.75" stroke-miterlimit="3" stroke-linecap="square"/>
<path d="M984.18 429.567C986.722 425.48 982.735 422.305 983.231 418.834C983.725 415.362 981.428 413.026 978.924 411.972C976.421 410.917 975.355 409.62 975.462 406.536C975.569 403.45 972.845 400.923 971.082 399.99C969.321 399.058 965.719 398.287 961.981 392.716C958.24 387.141 948.879 387.926 948.879 387.926C948.879 387.926 946.598 397.063 951.479 401.659C956.362 406.259 956.544 409.945 957.177 411.839C957.809 413.732 959.855 416.834 962.911 417.227C965.966 417.619 967.072 418.883 967.706 421.53C968.339 424.175 970.271 426.827 973.766 426.898C977.263 426.968 979.744 431.424 984.18 429.567Z" fill="white"/>
<path d="M984.18 429.567C986.722 425.48 982.735 422.305 983.231 418.834C983.725 415.362 981.428 413.026 978.924 411.972C976.421 410.917 975.355 409.62 975.462 406.536C975.569 403.45 972.845 400.923 971.082 399.99C969.321 399.058 965.719 398.287 961.981 392.716C958.24 387.141 948.879 387.926 948.879 387.926C948.879 387.926 946.598 397.063 951.479 401.659C956.362 406.259 956.544 409.945 957.177 411.839C957.809 413.732 959.855 416.834 962.911 417.227C965.966 417.619 967.072 418.883 967.706 421.53C968.339 424.175 970.271 426.827 973.766 426.898C977.263 426.968 979.744 431.424 984.18 429.567Z" stroke="#007CEA" stroke-width="0.75" stroke-miterlimit="3" stroke-linecap="square"/>
<path d="M984.18 429.567L948.879 387.926" stroke="#007CEA" stroke-width="0.75" stroke-miterlimit="3" stroke-linecap="square"/>
<path d="M978.036 422.319L978.495 415.283" stroke="#007CEA" stroke-width="0.75" stroke-miterlimit="3" stroke-linecap="square"/>
<path d="M976.792 420.91L969.765 421.149" stroke="#007CEA" stroke-width="0.75" stroke-miterlimit="3" stroke-linecap="square"/>
<path d="M957.718 398.424L951.952 398.621" stroke="#007CEA" stroke-width="0.75" stroke-miterlimit="3" stroke-linecap="square"/>
<path d="M967.846 410.335L958.552 410.654" stroke="#007CEA" stroke-width="0.75" stroke-miterlimit="3" stroke-linecap="square"/>
<path d="M968.785 411.407L969.362 402.541" stroke="#007CEA" stroke-width="0.75" stroke-miterlimit="3" stroke-linecap="square"/>
<path d="M959.216 400.119L959.572 394.692" stroke="#007CEA" stroke-width="0.75" stroke-miterlimit="3" stroke-linecap="square"/>
<path d="M1000.74 429.567C998.196 425.48 1002.18 422.305 1001.69 418.834C1001.19 415.362 1003.49 413.026 1005.99 411.972C1008.5 410.917 1009.56 409.62 1009.46 406.536C1009.35 403.45 1012.07 400.923 1013.84 399.99C1015.6 399.058 1019.2 398.287 1022.94 392.716C1026.68 387.141 1036.04 387.926 1036.04 387.926C1036.04 387.926 1038.32 397.063 1033.44 401.659C1028.56 406.259 1028.37 409.945 1027.74 411.839C1027.11 413.732 1025.06 416.834 1022.01 417.227C1018.95 417.619 1017.85 418.883 1017.21 421.53C1016.58 424.175 1014.65 426.827 1011.15 426.898C1007.65 426.968 1005.17 431.424 1000.74 429.567Z" fill="white"/>
<path d="M1000.74 429.567C998.196 425.48 1002.18 422.305 1001.69 418.834C1001.19 415.362 1003.49 413.026 1005.99 411.972C1008.5 410.917 1009.56 409.62 1009.46 406.536C1009.35 403.45 1012.07 400.923 1013.84 399.99C1015.6 399.058 1019.2 398.287 1022.94 392.716C1026.68 387.141 1036.04 387.926 1036.04 387.926C1036.04 387.926 1038.32 397.063 1033.44 401.659C1028.56 406.259 1028.37 409.945 1027.74 411.839C1027.11 413.732 1025.06 416.834 1022.01 417.227C1018.95 417.619 1017.85 418.883 1017.21 421.53C1016.58 424.175 1014.65 426.827 1011.15 426.898C1007.65 426.968 1005.17 431.424 1000.74 429.567Z" stroke="#007CEA" stroke-width="0.75" stroke-miterlimit="3" stroke-linecap="square"/>
<path d="M1000.74 429.567L1036.04 387.926" stroke="#007CEA" stroke-width="0.75" stroke-miterlimit="3" stroke-linecap="square"/>
<path d="M1006.88 422.319L1006.42 415.283" stroke="#007CEA" stroke-width="0.75" stroke-miterlimit="3" stroke-linecap="square"/>
<path d="M1008.13 420.91L1015.15 421.149" stroke="#007CEA" stroke-width="0.75" stroke-miterlimit="3" stroke-linecap="square"/>
<path d="M1027.2 398.424L1032.97 398.621" stroke="#007CEA" stroke-width="0.75" stroke-miterlimit="3" stroke-linecap="square"/>
<path d="M1017.07 410.335L1026.37 410.654" stroke="#007CEA" stroke-width="0.75" stroke-miterlimit="3" stroke-linecap="square"/>
<path d="M1016.13 411.407L1015.56 402.541" stroke="#007CEA" stroke-width="0.75" stroke-miterlimit="3" stroke-linecap="square"/>
<path d="M1025.7 400.119L1025.35 394.692" stroke="#007CEA" stroke-width="0.75" stroke-miterlimit="3" stroke-linecap="square"/>
<path d="M1013.26 459.42H971.655L964.939 422.83H1019.98L1013.26 459.42Z" fill="white"/>
<path d="M1013.26 459.42H971.655L964.939 422.83H1019.98L1013.26 459.42Z" stroke="#007CEA" stroke-width="0.75" stroke-miterlimit="3" stroke-linecap="square"/>
<path d="M739.031 247.447L742.541 250.967" stroke="#007CEA" stroke-width="0.65" stroke-miterlimit="3" stroke-linecap="square"/>
<path d="M742.542 247.447L739.031 250.967" stroke="#007CEA" stroke-width="0.65" stroke-miterlimit="3" stroke-linecap="square"/>
<path d="M1031.21 286.763L1034.72 290.282" stroke="#007CEA" stroke-width="0.65" stroke-miterlimit="3" stroke-linecap="square"/>
<path d="M1034.72 286.763L1031.21 290.282" stroke="#007CEA" stroke-width="0.65" stroke-miterlimit="3" stroke-linecap="square"/>
<path d="M827.091 232.854C827.091 234.248 825.964 235.377 824.573 235.377C823.184 235.377 822.054 234.248 822.054 232.854C822.054 231.459 823.184 230.33 824.573 230.33C825.964 230.33 827.091 231.459 827.091 232.854Z" stroke="#007CEA" stroke-width="0.65" stroke-miterlimit="3" stroke-linecap="square"/>
<path d="M986.699 266.141C986.699 267.536 985.571 268.665 984.181 268.665C982.79 268.665 981.662 267.536 981.662 266.141C981.662 264.747 982.79 263.617 984.181 263.617C985.571 263.617 986.699 264.747 986.699 266.141Z" stroke="#007CEA" stroke-width="0.65" stroke-miterlimit="3" stroke-linecap="square"/>
<path d="M853.299 133.72L859.249 134.665L855.457 139.36L853.299 133.72Z" stroke="#007CEA" stroke-width="0.65" stroke-miterlimit="3" stroke-linecap="square"/>
<path d="M1053.05 210.89L1047.1 211.835L1050.9 216.53L1053.05 210.89Z" stroke="#007CEA" stroke-width="0.65" stroke-miterlimit="3" stroke-linecap="square"/>
<path d="M983.775 228.124C985.749 228.124 985.749 229.606 987.722 229.606C989.698 229.606 989.698 228.124 991.675 228.124C993.651 228.124 993.651 229.606 995.629 229.606C997.605 229.606 997.605 228.124 999.58 228.124C1001.56 228.124 1001.56 229.606 1003.54 229.606C1005.52 229.606 1005.52 228.124 1007.5 228.124" stroke="#007CEA" stroke-width="0.65" stroke-miterlimit="3" stroke-linecap="square"/>
<path d="M775.133 178.525C777.107 178.525 777.107 180.007 779.082 180.007C781.058 180.007 781.058 178.525 783.034 178.525C785.012 178.525 785.012 180.007 786.987 180.007C788.965 180.007 788.965 178.525 790.941 178.525C792.921 178.525 792.921 180.007 794.901 180.007C796.882 180.007 796.882 178.525 798.862 178.525" stroke="#007CEA" stroke-width="0.65" stroke-miterlimit="3" stroke-linecap="square"/>
<path d="M930.763 160.505L929.833 159.904C927.622 158.476 927.618 157.431 927.615 157.038C927.611 156.093 928.375 155.327 929.318 155.327C929.912 155.327 930.436 155.631 930.742 156.093C931.047 155.631 931.571 155.327 932.163 155.327C933.107 155.327 933.873 156.093 933.878 157.038C933.88 157.431 933.884 158.476 931.687 159.904L930.763 160.505Z" stroke="#007CEA" stroke-width="0.65" stroke-miterlimit="3" stroke-linecap="square"/>
<path d="M752.5 219.5C752.5 227.035 746.248 234.275 735.178 239.721C724.206 245.119 708.942 248.5 692 248.5C675.058 248.5 659.794 245.119 648.822 239.721C637.752 234.275 631.5 227.035 631.5 219.5C631.5 211.965 637.752 204.725 648.822 199.279C659.794 193.881 675.058 190.5 692 190.5C708.942 190.5 724.206 193.881 735.178 199.279C746.248 204.725 752.5 211.965 752.5 219.5Z" fill="white" stroke="#007CEA" stroke-width="3"/>
<path d="M665.295 221.375C664.955 221.779 664.548 222.104 664.073 222.351C663.604 222.597 663.089 222.72 662.526 222.72C661.788 222.72 661.144 222.538 660.593 222.175C660.048 221.812 659.626 221.302 659.327 220.646C659.028 219.983 658.879 219.254 658.879 218.457C658.879 217.602 659.04 216.831 659.362 216.146C659.69 215.46 660.153 214.936 660.751 214.572C661.349 214.209 662.046 214.027 662.843 214.027C664.108 214.027 665.104 214.502 665.831 215.451C666.563 216.395 666.93 217.684 666.93 219.318V219.793C666.93 222.283 666.438 224.103 665.453 225.251C664.469 226.394 662.983 226.979 660.997 227.009H660.681V225.638H661.023C662.365 225.614 663.396 225.266 664.117 224.592C664.838 223.912 665.23 222.84 665.295 221.375ZM662.79 221.375C663.335 221.375 663.836 221.208 664.293 220.874C664.756 220.54 665.093 220.127 665.304 219.635V218.984C665.304 217.918 665.072 217.051 664.609 216.383C664.146 215.715 663.561 215.381 662.852 215.381C662.137 215.381 661.562 215.656 661.129 216.207C660.695 216.752 660.479 217.473 660.479 218.369C660.479 219.242 660.687 219.963 661.103 220.531C661.524 221.094 662.087 221.375 662.79 221.375ZM677.195 221.542C677.195 223.446 676.87 224.861 676.22 225.787C675.569 226.713 674.553 227.176 673.17 227.176C671.805 227.176 670.794 226.725 670.138 225.822C669.481 224.914 669.142 223.561 669.118 221.762V219.591C669.118 217.71 669.443 216.312 670.094 215.398C670.744 214.484 671.764 214.027 673.152 214.027C674.529 214.027 675.543 214.47 676.193 215.354C676.844 216.233 677.178 217.593 677.195 219.433V221.542ZM675.569 219.318C675.569 217.941 675.376 216.939 674.989 216.312C674.603 215.68 673.99 215.363 673.152 215.363C672.32 215.363 671.714 215.677 671.333 216.304C670.952 216.931 670.756 217.895 670.744 219.195V221.797C670.744 223.18 670.943 224.202 671.342 224.864C671.746 225.521 672.355 225.849 673.17 225.849C673.973 225.849 674.567 225.538 674.954 224.917C675.347 224.296 675.552 223.317 675.569 221.981V219.318ZM679.138 216.664C679.138 215.896 679.381 215.264 679.867 214.766C680.359 214.268 680.989 214.019 681.757 214.019C682.536 214.019 683.166 214.271 683.646 214.774C684.133 215.272 684.376 215.92 684.376 216.717V217.341C684.376 218.114 684.13 218.747 683.638 219.239C683.151 219.726 682.53 219.969 681.774 219.969C681.013 219.969 680.383 219.726 679.885 219.239C679.387 218.747 679.138 218.094 679.138 217.279V216.664ZM680.351 217.341C680.351 217.798 680.479 218.176 680.737 218.475C680.995 218.768 681.341 218.914 681.774 218.914C682.19 218.914 682.524 218.771 682.776 218.483C683.034 218.196 683.163 217.804 683.163 217.306V216.664C683.163 216.207 683.037 215.829 682.785 215.53C682.533 215.231 682.19 215.082 681.757 215.082C681.323 215.082 680.98 215.231 680.729 215.53C680.477 215.829 680.351 216.219 680.351 216.699V217.341ZM685.369 223.862C685.369 223.095 685.612 222.465 686.099 221.973C686.591 221.475 687.221 221.226 687.988 221.226C688.756 221.226 689.386 221.472 689.878 221.964C690.37 222.456 690.616 223.109 690.616 223.924V224.548C690.616 225.315 690.37 225.948 689.878 226.446C689.392 226.938 688.768 227.185 688.006 227.185C687.244 227.185 686.614 226.941 686.116 226.455C685.618 225.963 685.369 225.31 685.369 224.495V223.862ZM686.582 224.548C686.582 225.011 686.711 225.392 686.969 225.69C687.227 225.983 687.572 226.13 688.006 226.13C688.428 226.13 688.765 225.986 689.017 225.699C689.269 225.406 689.395 225.011 689.395 224.513V223.862C689.395 223.399 689.266 223.021 689.008 222.729C688.756 222.436 688.416 222.289 687.988 222.289C687.572 222.289 687.232 222.436 686.969 222.729C686.711 223.016 686.582 223.405 686.582 223.897V224.548ZM682.144 226.033L681.221 225.453L687.47 215.451L688.393 216.031L682.144 226.033ZM696.663 222.157C696.663 221.226 696.845 220.388 697.208 219.644C697.577 218.899 698.087 218.325 698.737 217.921C699.394 217.517 700.141 217.314 700.979 217.314C702.273 217.314 703.319 217.763 704.116 218.659C704.919 219.556 705.32 220.748 705.32 222.236V222.351C705.32 223.276 705.142 224.108 704.784 224.847C704.433 225.579 703.926 226.15 703.264 226.561C702.607 226.971 701.852 227.176 700.996 227.176C699.707 227.176 698.661 226.728 697.858 225.831C697.062 224.935 696.663 223.748 696.663 222.271V222.157ZM698.298 222.351C698.298 223.405 698.541 224.252 699.027 224.891C699.52 225.529 700.176 225.849 700.996 225.849C701.822 225.849 702.479 225.526 702.965 224.882C703.451 224.231 703.694 223.323 703.694 222.157C703.694 221.114 703.445 220.271 702.947 219.626C702.455 218.976 701.799 218.65 700.979 218.65C700.176 218.65 699.528 218.97 699.036 219.608C698.544 220.247 698.298 221.161 698.298 222.351ZM708.159 227V218.747H706.656V217.49H708.159V216.515C708.159 215.495 708.432 214.707 708.977 214.15C709.521 213.594 710.292 213.315 711.288 213.315C711.663 213.315 712.035 213.365 712.404 213.465L712.316 214.783C712.041 214.73 711.748 214.704 711.438 214.704C710.91 214.704 710.503 214.859 710.216 215.17C709.929 215.475 709.785 215.914 709.785 216.488V217.49H711.815V218.747H709.785V227H708.159ZM714.417 227V218.747H712.914V217.49H714.417V216.515C714.417 215.495 714.689 214.707 715.234 214.15C715.779 213.594 716.55 213.315 717.546 213.315C717.921 213.315 718.293 213.365 718.662 213.465L718.574 214.783C718.299 214.73 718.006 214.704 717.695 214.704C717.168 214.704 716.761 214.859 716.474 215.17C716.187 215.475 716.043 215.914 716.043 216.488V217.49H718.073V218.747H716.043V227H714.417ZM721.694 223.388H720.227L720.112 214.203H721.817L721.694 223.388ZM720.051 226.183C720.051 225.919 720.13 225.699 720.288 225.523C720.452 225.342 720.692 225.251 721.009 225.251C721.325 225.251 721.565 225.342 721.729 225.523C721.894 225.699 721.976 225.919 721.976 226.183C721.976 226.446 721.894 226.666 721.729 226.842C721.565 227.012 721.325 227.097 721.009 227.097C720.692 227.097 720.452 227.012 720.288 226.842C720.13 226.666 720.051 226.446 720.051 226.183Z" fill="#007CEA"/>
<path d="M831.5 177C831.5 184.58 826.58 191.67 818.146 196.941C809.734 202.199 798.019 205.5 785 205.5C771.981 205.5 760.266 202.199 751.854 196.941C743.42 191.67 738.5 184.58 738.5 177C738.5 169.42 743.42 162.33 751.854 157.059C760.266 151.801 771.981 148.5 785 148.5C798.019 148.5 809.734 151.801 818.146 157.059C826.58 162.33 831.5 169.42 831.5 177Z" fill="white" stroke="#007CEA" stroke-width="3"/>
<path d="M774.543 178.349H769.173V184H767.485V171.203H775.413V172.592H769.173V176.969H774.543V178.349ZM781.548 175.949C781.302 175.908 781.035 175.888 780.748 175.888C779.682 175.888 778.958 176.342 778.577 177.25V184H776.951V174.49H778.533L778.56 175.589C779.093 174.739 779.849 174.314 780.827 174.314C781.144 174.314 781.384 174.355 781.548 174.438V175.949ZM786.821 184.176C785.532 184.176 784.483 183.754 783.675 182.91C782.866 182.061 782.462 180.927 782.462 179.509V179.21C782.462 178.267 782.641 177.426 782.998 176.688C783.361 175.943 783.865 175.363 784.51 174.947C785.16 174.525 785.863 174.314 786.619 174.314C787.855 174.314 788.816 174.722 789.502 175.536C790.188 176.351 790.53 177.517 790.53 179.034V179.711H784.088C784.111 180.648 784.384 181.407 784.905 181.987C785.433 182.562 786.101 182.849 786.909 182.849C787.483 182.849 787.97 182.731 788.368 182.497C788.767 182.263 789.115 181.952 789.414 181.565L790.407 182.339C789.61 183.563 788.415 184.176 786.821 184.176ZM786.619 175.65C785.963 175.65 785.412 175.891 784.967 176.371C784.521 176.846 784.246 177.514 784.141 178.375H788.904V178.252C788.857 177.426 788.635 176.787 788.236 176.336C787.838 175.879 787.299 175.65 786.619 175.65ZM796.366 184.176C795.077 184.176 794.028 183.754 793.22 182.91C792.411 182.061 792.007 180.927 792.007 179.509V179.21C792.007 178.267 792.186 177.426 792.543 176.688C792.906 175.943 793.41 175.363 794.055 174.947C794.705 174.525 795.408 174.314 796.164 174.314C797.4 174.314 798.361 174.722 799.047 175.536C799.732 176.351 800.075 177.517 800.075 179.034V179.711H793.633C793.656 180.648 793.929 181.407 794.45 181.987C794.978 182.562 795.646 182.849 796.454 182.849C797.028 182.849 797.515 182.731 797.913 182.497C798.312 182.263 798.66 181.952 798.959 181.565L799.952 182.339C799.155 183.563 797.96 184.176 796.366 184.176ZM796.164 175.65C795.508 175.65 794.957 175.891 794.512 176.371C794.066 176.846 793.791 177.514 793.686 178.375H798.449V178.252C798.402 177.426 798.18 176.787 797.781 176.336C797.383 175.879 796.844 175.65 796.164 175.65ZM803.784 180.388H802.316L802.202 171.203H803.907L803.784 180.388ZM802.141 183.183C802.141 182.919 802.22 182.699 802.378 182.523C802.542 182.342 802.782 182.251 803.099 182.251C803.415 182.251 803.655 182.342 803.819 182.523C803.983 182.699 804.065 182.919 804.065 183.183C804.065 183.446 803.983 183.666 803.819 183.842C803.655 184.012 803.415 184.097 803.099 184.097C802.782 184.097 802.542 184.012 802.378 183.842C802.22 183.666 802.141 183.446 802.141 183.183Z" fill="#007CEA"/>
<path d="M735.08 229.767L750.552 255.217L721.441 245.119L735.08 229.767Z" fill="white" stroke="#007CEA" stroke-width="3"/>
<path d="M797.998 203.813L780.827 232.798L777.493 201.683L797.998 203.813Z" fill="white" stroke="#007CEA" stroke-width="3"/>
</svg>
