<svg width="661" height="624" viewBox="0 0 661 624" fill="none" xmlns="http://www.w3.org/2000/svg">
<path d="M20.8211 370.255C20.8211 370.255 20.2595 368.604 19.3511 365.533" stroke="#69F0AE" stroke-width="9" stroke-miterlimit="10"/>
<path d="M16.6917 355.959C-3.38515 278.7 -65.9776 -77.3657 561.483 144.917" stroke="#69F0AE" stroke-width="9" stroke-miterlimit="10" stroke-dasharray="12.04 12.04"/>
<path d="M566.182 146.568L570.848 148.219" stroke="#69F0AE" stroke-width="9" stroke-miterlimit="10"/>
<path d="M493.993 421.174C493.998 404.48 487.769 388.385 476.525 376.039C465.282 363.692 449.834 355.984 433.204 354.421C416.574 352.858 399.959 357.553 386.61 367.588C373.261 377.623 364.139 392.275 361.029 408.677L154.901 403.089L157.164 438.483C157.164 438.483 127.771 506.266 282.249 524.326V592.835H460.835V478.928C470.92 473.026 479.286 464.591 485.102 454.46C490.919 444.329 493.984 432.854 493.993 421.174V421.174Z" fill="url(#paint0_linear)"/>
<path d="M164.241 439.969C164.241 439.969 136.096 504.879 284.033 522.196V587.833H455.062V414.001L162.044 406.069L164.241 439.969Z" fill="#F6B9AD"/>
<path d="M249.719 169.094C245.259 176.127 238.196 181.11 230.072 182.955C221.948 184.8 213.424 183.357 206.361 178.941L114.533 118.463C107.496 114.006 102.509 106.947 100.663 98.827C98.8173 90.7075 100.261 82.1877 104.68 75.1289C109.139 68.1048 116.196 63.1278 124.312 61.2831C132.429 59.4384 140.945 60.8758 148.005 65.2817L239.833 125.76C246.876 130.211 251.869 137.268 253.721 145.388C255.574 153.508 254.135 162.031 249.719 169.094V169.094Z" fill="url(#paint1_linear)"/>
<path d="M244.631 165.784C240.486 172.321 233.921 176.953 226.369 178.669C218.818 180.384 210.894 179.042 204.329 174.938L118.943 118.719C112.402 114.576 107.767 108.014 106.051 100.467C104.335 92.9196 105.677 85.0002 109.784 78.4388V78.4388C113.929 71.9013 120.494 67.269 128.046 65.5539C135.597 63.8387 143.521 65.1801 150.086 69.285L235.456 125.512C241.997 129.652 246.634 136.211 248.353 143.757C250.072 151.302 248.734 159.221 244.631 165.784V165.784Z" fill="#F6B9AD"/>
<path d="M422.589 487.579C458.061 487.579 486.817 458.839 486.817 423.386C486.817 387.934 458.061 359.194 422.589 359.194C387.117 359.194 358.361 387.934 358.361 423.386C358.361 458.839 387.117 487.579 422.589 487.579Z" fill="#F6B9AD"/>
<path d="M411.027 0H164.985C159.398 0 154.868 4.52698 154.868 10.1113V470.245C154.868 475.829 159.398 480.356 164.985 480.356H411.027C416.615 480.356 421.144 475.829 421.144 470.245V10.1113C421.144 4.52698 416.615 0 411.027 0Z" fill="url(#paint2_linear)"/>
<path d="M406.277 6.49622H169.733C163.511 6.49622 158.468 11.5369 158.468 17.7548V462.618C158.468 468.836 163.511 473.877 169.733 473.877H406.277C412.499 473.877 417.542 468.836 417.542 462.618V17.7548C417.542 11.5369 412.499 6.49622 406.277 6.49622Z" fill="white"/>
<path d="M353.092 18.2086C352.342 23.1652 349.843 27.6901 346.045 30.9647C342.248 34.2394 337.403 36.0476 332.387 36.0623H242.913C237.899 36.0456 233.056 34.2365 229.26 30.962C225.464 27.6876 222.966 23.1638 222.217 18.2086H174.812C173.52 18.2075 172.24 18.461 171.045 18.9546C169.851 19.4481 168.766 20.1721 167.852 21.085C166.937 21.998 166.212 23.0821 165.717 24.2753C165.222 25.4686 164.968 26.7476 164.968 28.0393V452.301C164.967 453.592 165.22 454.871 165.714 456.065C166.208 457.259 166.932 458.343 167.846 459.257C168.759 460.171 169.844 460.896 171.038 461.39C172.232 461.885 173.511 462.139 174.804 462.139H401.207C402.499 462.14 403.779 461.887 404.974 461.393C406.168 460.9 407.253 460.176 408.167 459.263C409.082 458.35 409.807 457.266 410.302 456.073C410.797 454.879 411.051 453.6 411.051 452.309V28.0475C411.052 26.7559 410.799 25.4766 410.305 24.283C409.811 23.0893 409.087 22.0046 408.173 21.0909C407.26 20.1771 406.175 19.4523 404.981 18.9577C403.787 18.4632 402.508 18.2086 401.215 18.2086H353.092Z" fill="#1C46DA"/>
<path d="M464.114 434.703C445.474 439.011 432.682 426.861 428.371 408.24L385.541 249.299C383.494 240.319 385.085 230.894 389.967 223.083C394.849 215.271 402.625 209.708 411.597 207.607V207.607C420.582 205.561 430.012 207.152 437.828 212.031C445.643 216.91 451.21 224.682 453.312 233.649L488.262 396.668C492.574 415.322 482.746 430.394 464.114 434.703Z" fill="url(#paint3_linear)"/>
<path d="M448.506 237.548C444.872 221.829 429.176 212.031 413.449 215.663C397.721 219.295 387.918 234.982 391.551 250.7L430.935 421.059C434.569 436.778 450.264 446.576 465.992 442.944C481.719 439.312 491.523 423.626 487.889 407.907L448.506 237.548Z" fill="#F6B9AD"/>
<path d="M486.552 566.355H242.095V623.309H486.552V566.355Z" fill="url(#paint4_linear)"/>
<path d="M479.945 572.959H248.703V617.531H479.945V572.959Z" fill="#FF8976"/>
<path d="M342.546 150.538L323.6 136.284L331.859 125.553L318.075 114.74L309.461 125.652L289.979 111.001C289.237 110.445 288.334 110.144 287.407 110.144C286.479 110.144 285.576 110.445 284.834 111.001L233.193 149.424C231.235 151.075 229.402 152.965 229.385 157.29H229.327L229.195 216.489V219.122C229.193 219.97 229.358 220.809 229.681 221.593C230.003 222.377 230.477 223.09 231.075 223.691C231.673 224.292 232.384 224.769 233.167 225.095C233.95 225.422 234.789 225.591 235.637 225.593H238.181L287.146 225.7L338.664 225.816C339.512 225.818 340.352 225.653 341.137 225.331C341.921 225.009 342.634 224.535 343.235 223.937C343.837 223.339 344.314 222.629 344.641 221.847C344.967 221.064 345.137 220.225 345.139 219.378L345.279 157.654H345.387C345.387 153.32 344.503 152.189 342.546 150.538Z" fill="url(#paint5_linear)"/>
<path d="M340.3 158.553C340.3 154.607 339.474 153.6 337.707 152.073L289.748 116.028C289.071 115.519 288.246 115.245 287.399 115.245C286.551 115.245 285.727 115.519 285.049 116.028L237.934 151.091C236.8 151.9 235.888 152.981 235.282 154.235C234.676 155.488 234.395 156.874 234.465 158.264H234.415L234.292 212.279V214.681C234.289 216.242 234.907 217.741 236.01 218.848C237.112 219.954 238.609 220.578 240.172 220.583H242.492L287.172 220.682L334.172 220.789C335.734 220.791 337.234 220.173 338.341 219.071C339.448 217.97 340.072 216.474 340.077 214.912L340.201 158.594L340.3 158.553Z" fill="url(#paint6_linear)"/>
<path d="M235.281 158.48L339.2 158.716L339.07 215.859C339.069 216.312 338.979 216.761 338.804 217.179C338.63 217.597 338.375 217.977 338.053 218.297C337.732 218.616 337.351 218.869 336.932 219.042C336.513 219.214 336.063 219.303 335.61 219.302L238.984 219.082C237.974 219.08 237.007 218.677 236.294 217.962C235.582 217.247 235.183 216.278 235.185 215.269L235.314 158.481L235.281 158.48Z" fill="#1C46DA"/>
<path opacity="0.2" d="M235.281 158.48L339.2 158.716L339.07 215.859C339.069 216.312 338.979 216.761 338.804 217.179C338.63 217.597 338.375 217.977 338.053 218.297C337.732 218.616 337.351 218.869 336.932 219.042C336.513 219.214 336.063 219.303 335.61 219.302L238.984 219.082C237.974 219.08 237.007 218.677 236.294 217.962C235.582 217.247 235.183 216.278 235.185 215.269L235.314 158.481L235.281 158.48Z" fill="white"/>
<path d="M235.29 158.462L235.175 210.95C235.173 212.009 235.379 213.058 235.783 214.038C236.186 215.017 236.779 215.907 237.526 216.657C238.274 217.408 239.162 218.004 240.141 218.411C241.119 218.818 242.167 219.029 243.227 219.031L331.008 219.229" fill="#F5F5F5"/>
<path d="M339.218 158.694L339.102 211.215C339.1 212.274 338.889 213.322 338.482 214.299C338.074 215.277 337.478 216.165 336.727 216.912C335.977 217.659 335.086 218.251 334.106 218.655C333.126 219.058 332.077 219.264 331.017 219.262L243.236 219.064" fill="white"/>
<path d="M285.04 117.398L238.792 151.488C237.681 152.268 236.786 153.317 236.189 154.537C235.593 155.756 235.315 157.107 235.381 158.462L339.349 158.793C339.349 154.954 338.524 153.947 336.806 152.495L289.69 117.415C289.021 116.909 288.206 116.635 287.368 116.632C286.53 116.629 285.713 116.898 285.04 117.398V117.398Z" fill="#1C46DA"/>
<path opacity="0.2" d="M285.04 117.398L238.792 151.488C237.681 152.268 236.786 153.317 236.189 154.537C235.593 155.756 235.315 157.107 235.381 158.462L339.349 158.793C339.349 154.954 338.524 153.947 336.806 152.495L289.69 117.415C289.021 116.909 288.206 116.635 287.368 116.632C286.53 116.629 285.713 116.898 285.04 117.398V117.398Z" fill="black"/>
<path d="M327.961 129.26L315.383 119.404L284.983 157.885L268.648 145.223L258.415 158.223L282.192 176.374L288.088 181.104L327.961 129.26Z" fill="url(#paint7_linear)"/>
<path d="M327.036 129.02L315.639 120.287L285.437 159.651L268.663 146.799L259.917 158.19L282.389 175.392L288.154 179.709L327.036 129.02Z" fill="white"/>
<path d="M229.996 255.72C225.569 262.701 218.558 267.646 210.495 269.477C202.432 271.308 193.971 269.876 186.96 265.493L108.916 214.706C101.932 210.281 96.9837 203.274 95.1516 195.215C93.3195 187.156 94.7526 178.7 99.1378 171.694V171.694C103.565 164.713 110.576 159.768 118.639 157.937C126.703 156.106 135.163 157.538 142.174 161.921L220.218 212.708C227.202 217.133 232.151 224.14 233.983 232.199C235.815 240.258 234.382 248.714 229.996 255.72V255.72Z" fill="url(#paint8_linear)"/>
<path d="M225.851 253.046C221.705 259.584 215.14 264.216 207.589 265.931C200.037 267.646 192.113 266.305 185.548 262.2L112.451 214.632C105.91 210.489 101.275 203.927 99.5589 196.38C97.8428 188.832 99.1849 180.913 103.292 174.352V174.352C107.437 167.814 114.003 163.182 121.554 161.467C129.106 159.752 137.029 161.093 143.594 165.198L216.692 212.766C223.233 216.909 227.868 223.471 229.584 231.018C231.3 238.565 229.958 246.485 225.851 253.046V253.046Z" fill="#F6B9AD"/>
<path d="M214.074 339.599C209.669 346.548 202.69 351.473 194.664 353.296C186.637 355.12 178.214 353.694 171.236 349.33L109.643 309.504C102.69 305.101 97.7625 298.127 95.938 290.105C94.1136 282.082 95.5401 273.664 99.9061 266.69V266.69C104.311 259.741 111.29 254.816 119.316 252.993C127.343 251.169 135.766 252.595 142.744 256.958L204.329 296.793C211.281 301.194 216.208 308.167 218.034 316.187C219.86 324.207 218.436 332.624 214.074 339.599Z" fill="url(#paint9_linear)"/>
<path d="M198.614 423.906C194.169 430.92 187.128 435.889 179.028 437.73C170.929 439.57 162.429 438.132 155.388 433.729L117.241 405.912C110.224 401.47 105.251 394.433 103.41 386.338C101.568 378.243 103.008 369.748 107.413 362.71C111.863 355.702 118.907 350.739 127.006 348.905C135.105 347.071 143.601 348.515 150.639 352.921L188.786 380.729C195.796 385.171 200.764 392.204 202.605 400.293C204.446 408.382 203.011 416.871 198.614 423.906Z" fill="url(#paint10_linear)"/>
<path d="M195.533 421.835C191.388 428.372 184.823 433.004 177.271 434.72C169.72 436.435 161.796 435.093 155.231 430.988L119.661 405.054C113.12 400.911 108.485 394.349 106.769 386.802C105.053 379.255 106.395 371.335 110.502 364.774C114.647 358.236 121.213 353.604 128.764 351.889C136.316 350.174 144.239 351.515 150.804 355.62L186.374 381.555C192.915 385.698 197.55 392.259 199.266 399.807C200.982 407.354 199.64 415.273 195.533 421.835V421.835Z" fill="#F6B9AD"/>
<path d="M372.244 267.078H203.767V317.428H372.244V267.078Z" fill="url(#paint11_linear)"/>
<path d="M366.463 272.031H209.549V308.349H366.463V272.031Z" fill="#69F0AE"/>
<path d="M658.035 177.067L661 177.529L660.537 177.092H660.785L660.397 176.96L606.641 126.007L593.593 146.585L582.741 165.355L587.77 166.139L585.54 176.308L658.035 177.067Z" fill="url(#paint12_linear)"/>
<path d="M595.848 147.658L585.938 164.835L658.614 176.663L611.804 144.084L595.848 147.658Z" fill="#1C46DA"/>
<path opacity="0.2" d="M595.848 147.658L585.938 164.835L658.614 176.663L611.804 144.084L595.848 147.658Z" fill="black"/>
<path d="M607.781 128.838L658.614 176.663L595.848 147.658L607.781 128.838Z" fill="#1C46DA"/>
<path d="M588.612 174.929L658.415 176.258L593.254 153.13L588.612 174.929Z" fill="#1C46DA"/>
<path d="M210.688 337.445C206.542 343.982 199.977 348.614 192.426 350.329C184.874 352.045 176.951 350.703 170.385 346.598L112.443 309.125C105.902 304.982 101.267 298.42 99.5506 290.873C97.8345 283.325 99.1766 275.406 103.284 268.845V268.845C107.422 262.3 113.985 257.66 121.537 255.937C129.089 254.214 137.016 255.548 143.586 259.65L201.529 297.123C208.081 301.267 212.724 307.836 214.441 315.393C216.157 322.951 214.808 330.88 210.688 337.445V337.445Z" fill="#F6B9AD"/>
<defs>
<linearGradient id="paint0_linear" x1="324.46" y1="592.868" x2="324.46" y2="354.134" gradientUnits="userSpaceOnUse">
<stop stop-color="#808080" stop-opacity="0.25"/>
<stop offset="0.54" stop-color="#808080" stop-opacity="0.12"/>
<stop offset="1" stop-color="#808080" stop-opacity="0.1"/>
</linearGradient>
<linearGradient id="paint1_linear" x1="63705.7" y1="36421.4" x2="63705.7" y2="18016.6" gradientUnits="userSpaceOnUse">
<stop stop-color="#808080" stop-opacity="0.25"/>
<stop offset="0.54" stop-color="#808080" stop-opacity="0.12"/>
<stop offset="1" stop-color="#808080" stop-opacity="0.1"/>
</linearGradient>
<linearGradient id="paint2_linear" x1="145250" y1="314280" x2="145250" y2="34732.4" gradientUnits="userSpaceOnUse">
<stop stop-color="#808080" stop-opacity="0.25"/>
<stop offset="0.54" stop-color="#808080" stop-opacity="0.12"/>
<stop offset="1" stop-color="#808080" stop-opacity="0.1"/>
</linearGradient>
<linearGradient id="paint3_linear" x1="76310.8" y1="137538" x2="76310.8" y2="74088.9" gradientUnits="userSpaceOnUse">
<stop stop-color="#808080" stop-opacity="0.25"/>
<stop offset="0.54" stop-color="#808080" stop-opacity="0.12"/>
<stop offset="1" stop-color="#808080" stop-opacity="0.1"/>
</linearGradient>
<linearGradient id="paint4_linear" x1="156027" y1="47639.4" x2="156027" y2="43709.7" gradientUnits="userSpaceOnUse">
<stop stop-color="#808080" stop-opacity="0.25"/>
<stop offset="0.54" stop-color="#808080" stop-opacity="0.12"/>
<stop offset="1" stop-color="#808080" stop-opacity="0.1"/>
</linearGradient>
<linearGradient id="paint5_linear" x1="287.287" y1="225.808" x2="287.287" y2="110.135" gradientUnits="userSpaceOnUse">
<stop stop-opacity="0.12"/>
<stop offset="0.55" stop-opacity="0.09"/>
<stop offset="1" stop-opacity="0.02"/>
</linearGradient>
<linearGradient id="paint6_linear" x1="57971.7" y1="35985.5" x2="57971.7" y2="22490.6" gradientUnits="userSpaceOnUse">
<stop stop-color="#808080" stop-opacity="0.25"/>
<stop offset="0.54" stop-color="#808080" stop-opacity="0.12"/>
<stop offset="1" stop-color="#808080" stop-opacity="0.1"/>
</linearGradient>
<linearGradient id="paint7_linear" x1="38397.8" y1="18159.2" x2="38408.3" y2="13542.2" gradientUnits="userSpaceOnUse">
<stop stop-opacity="0.12"/>
<stop offset="0.55" stop-opacity="0.09"/>
<stop offset="1" stop-opacity="0.02"/>
</linearGradient>
<linearGradient id="paint8_linear" x1="55694.7" y1="45379.7" x2="55694.7" y2="29882.1" gradientUnits="userSpaceOnUse">
<stop stop-color="#808080" stop-opacity="0.25"/>
<stop offset="0.54" stop-color="#808080" stop-opacity="0.12"/>
<stop offset="1" stop-color="#808080" stop-opacity="0.1"/>
</linearGradient>
<linearGradient id="paint9_linear" x1="47930.7" y1="51321" x2="47930.7" y2="38752.4" gradientUnits="userSpaceOnUse">
<stop stop-color="#808080" stop-opacity="0.25"/>
<stop offset="0.54" stop-color="#808080" stop-opacity="0.12"/>
<stop offset="1" stop-color="#808080" stop-opacity="0.1"/>
</linearGradient>
<linearGradient id="paint10_linear" x1="38600.3" y1="54911.6" x2="38600.3" y2="45012" gradientUnits="userSpaceOnUse">
<stop stop-color="#808080" stop-opacity="0.25"/>
<stop offset="0.54" stop-color="#808080" stop-opacity="0.12"/>
<stop offset="1" stop-color="#808080" stop-opacity="0.1"/>
</linearGradient>
<linearGradient id="paint11_linear" x1="58695.5" y1="19630.2" x2="58695.5" y2="16558.8" gradientUnits="userSpaceOnUse">
<stop stop-opacity="0.12"/>
<stop offset="0.55" stop-opacity="0.09"/>
<stop offset="1" stop-opacity="0.02"/>
</linearGradient>
<linearGradient id="paint12_linear" x1="54673.4" y1="54634.2" x2="56469.6" y2="51797.9" gradientUnits="userSpaceOnUse">
<stop stop-color="#808080" stop-opacity="0.25"/>
<stop offset="0.54" stop-color="#808080" stop-opacity="0.12"/>
<stop offset="1" stop-color="#808080" stop-opacity="0.1"/>
</linearGradient>
</defs>
</svg>
