<svg width="476" height="487" viewBox="0 0 476 487" fill="none" xmlns="http://www.w3.org/2000/svg">
<path d="M203.861 31.483L0.0480957 88.7466L75.4123 356.433L279.225 299.169L203.861 31.483Z" fill="url(#paint0_linear)"/>
<path d="M205.184 33.5946L0 89.9382L28.199 192.419L233.383 136.075L205.184 33.5946Z" fill="url(#paint1_linear)"/>
<path d="M202.978 36.7147L3.50269 91.4907L75.7641 354.102L275.239 299.326L202.978 36.7147Z" fill="#EEEEEE"/>
<path d="M203.136 36.4035L3.20117 91.3057L30.7428 191.397L230.678 136.495L203.136 36.4035Z" fill="#1C46DA"/>
<path d="M134.799 193.196L80.564 208.089L81.7006 212.22L135.936 197.327L134.799 193.196Z" fill="#BDBDBD"/>
<path d="M139.349 209.73L85.1138 224.623L86.2505 228.754L140.486 213.861L139.349 209.73Z" fill="#F5F5F5"/>
<path d="M224.405 177.484L82.8408 216.357L83.9775 220.488L225.542 181.615L224.405 177.484Z" fill="#69F0AE"/>
<path d="M146.095 92.314L91.8599 107.207L92.9965 111.338L147.232 96.4449L146.095 92.314Z" fill="white"/>
<path d="M181.715 92.4071L94.3857 116.388L95.5224 120.519L182.852 96.538L181.715 92.4071Z" fill="white"/>
<path opacity="0.2" d="M166.512 109.428L116.166 123.253C115.092 123.548 114.461 124.657 114.756 125.73L114.95 126.434C115.245 127.507 116.355 128.138 117.429 127.843L167.775 114.018C168.849 113.723 169.48 112.614 169.185 111.541L168.991 110.837C168.696 109.764 167.586 109.133 166.512 109.428Z" fill="black"/>
<path d="M61.3409 228.93C66.6732 227.466 69.8076 221.961 68.3419 216.634C66.8761 211.307 61.3652 208.176 56.0329 209.64C50.7006 211.104 47.5662 216.61 49.0319 221.936C50.4977 227.263 56.0086 230.394 61.3409 228.93Z" fill="#69F0AE"/>
<path d="M145.801 233.144L91.5654 248.037L92.7021 252.168L146.937 237.274L145.801 233.144Z" fill="#BDBDBD"/>
<path d="M150.344 249.678L96.1084 264.571L97.2451 268.702L151.48 253.809L150.344 249.678Z" fill="#F5F5F5"/>
<path d="M235.4 217.432L93.8359 256.305L94.9726 260.436L236.537 221.562L235.4 217.432Z" fill="#E0E0E0"/>
<path d="M72.3292 268.88C77.6614 267.416 80.7959 261.911 79.3301 256.584C77.8644 251.257 72.3535 248.126 67.0212 249.59C61.6889 251.054 58.5544 256.559 60.0202 261.886C61.486 267.213 66.9969 270.344 72.3292 268.88Z" fill="#E0E0E0"/>
<path d="M156.788 273.087L102.553 287.98L103.689 292.111L157.925 277.218L156.788 273.087Z" fill="#BDBDBD"/>
<path d="M161.338 289.615L107.103 304.508L108.239 308.639L162.475 293.746L161.338 289.615Z" fill="#F5F5F5"/>
<path d="M246.389 257.374L104.825 296.248L105.961 300.379L247.526 261.505L246.389 257.374Z" fill="#E0E0E0"/>
<path d="M83.3245 308.828C88.6568 307.364 91.7913 301.858 90.3255 296.532C88.8598 291.205 83.3488 288.073 78.0165 289.538C72.6843 291.002 69.5498 296.507 71.0156 301.834C72.4813 307.161 77.9922 310.292 83.3245 308.828Z" fill="#E0E0E0"/>
<path d="M25.6133 137.079C27.0137 141.929 29.7199 146.301 33.4367 149.719C37.1535 153.138 41.7383 155.472 46.6915 156.466C51.6447 157.461 56.7761 157.078 61.5264 155.36C66.2768 153.641 70.4639 150.653 73.6312 146.721C76.7985 142.789 78.8245 138.064 79.4885 133.06C80.1525 128.057 79.4289 122.968 77.3966 118.347C75.3643 113.726 72.1013 109.751 67.9632 106.856C63.8252 103.96 58.9708 102.255 53.9293 101.926L55.8876 108.753C56.5656 111.133 56.2735 113.684 55.0749 115.849C53.8763 118.014 51.8687 119.617 49.4907 120.308V120.308C47.1087 120.985 44.5552 120.694 42.3879 119.496C40.2207 118.299 38.6159 116.293 37.924 113.918L35.9658 107.09C31.3605 110.417 27.895 115.082 26.0423 120.449C24.1895 125.817 24.0396 131.624 25.6133 137.079Z" fill="url(#paint2_linear)"/>
<path d="M78.0806 119.656C76.7392 114.789 74.0858 110.383 70.41 106.92C66.7341 103.456 62.1769 101.067 57.2351 100.013C52.2933 98.9587 47.1566 99.2803 42.3853 100.943C37.6139 102.605 33.391 105.544 30.1769 109.439C26.9628 113.334 24.881 118.036 24.1584 123.032C23.4358 128.028 24.1002 133.127 26.0791 137.772C28.0581 142.416 31.2756 146.429 35.3808 149.373C39.4861 152.316 44.3215 154.077 49.3599 154.464L47.4734 147.617C46.8239 145.23 47.1458 142.684 48.3687 140.534C49.5916 138.384 51.6163 136.804 54.0009 136.14V136.14C56.3896 135.491 58.9384 135.813 61.0907 137.035C63.2431 138.256 64.8243 140.279 65.4892 142.661L67.3756 149.508C72.0172 146.236 75.5357 141.614 77.4515 136.272C79.3672 130.93 79.5869 125.127 78.0806 119.656V119.656Z" fill="#1C46DA"/>
<path d="M53.2722 133.547C58.9208 131.995 62.2412 126.164 60.6885 120.521C59.1358 114.878 53.298 111.561 47.6494 113.112C42.0007 114.663 38.6803 120.495 40.2331 126.138C41.7858 131.781 47.6236 135.098 53.2722 133.547Z" fill="white" stroke="white" stroke-miterlimit="10"/>
<path d="M53.9882 136.14C51.6036 136.804 49.5789 138.384 48.356 140.534C47.1331 142.684 46.8112 145.23 47.4607 147.617L49.3472 154.463C55.7471 154.949 62.1173 153.2 67.3694 149.514L65.483 142.667C64.8196 140.283 63.238 138.257 61.0839 137.034C58.9299 135.811 56.3787 135.489 53.9882 136.14V136.14Z" fill="white" stroke="white" stroke-miterlimit="10"/>
<path d="M39.9996 125.576C38.7438 124.218 37.8779 122.546 37.493 120.738C37.1175 118.914 37.4713 117.016 38.4787 115.449C39.621 113.774 41.5139 112.769 43.4265 112.078C45.339 111.387 47.3429 110.937 49.1576 110.031C50.6578 109.273 51.9924 108.225 53.0838 106.948C54.1752 105.671 55.0017 104.19 55.5153 102.591C56.1187 104.033 56.5207 105.551 56.7098 107.103C56.8004 107.88 56.7313 108.666 56.5068 109.415C56.2823 110.164 55.9072 110.86 55.4043 111.459C56.762 110.311 57.0558 112.046 56.997 113.148C58.0218 113.865 59.9344 113.506 60.3652 114.68C60.8513 115.835 61.0528 117.089 60.9527 118.338C60.7895 119.577 61.8273 121.39 60.6524 121.807" fill="white"/>
<path d="M39.9996 125.576C38.7438 124.218 37.8779 122.546 37.493 120.738C37.1175 118.914 37.4713 117.016 38.4787 115.449C39.621 113.774 41.5139 112.769 43.4265 112.078C45.339 111.387 47.3429 110.937 49.1576 110.031C50.6578 109.273 51.9924 108.225 53.0838 106.948C54.1752 105.671 55.0017 104.19 55.5153 102.591C56.1187 104.033 56.5207 105.551 56.7098 107.103C56.8004 107.88 56.7313 108.666 56.5068 109.415C56.2823 110.164 55.9072 110.86 55.4043 111.459C56.762 110.311 57.0558 112.046 56.997 113.148C58.0218 113.865 59.9344 113.506 60.3652 114.68C60.8513 115.835 61.0528 117.089 60.9527 118.338C60.7895 119.577 61.8273 121.39 60.6524 121.807" stroke="white" stroke-miterlimit="10"/>
<path d="M55.8872 111.055C55.8872 111.055 63.198 109.718 61.0243 121.697Z" fill="white"/>
<path d="M416.307 465.744H347.488V186.35H476L416.307 465.744Z" fill="url(#paint3_linear)"/>
<path d="M412.88 465.744H345.418V186.35H471.392L412.88 465.744Z" fill="#BDBDBD"/>
<path d="M428.968 99.4813L217.845 121.834L247.264 399.122L458.387 376.768L428.968 99.4813Z" fill="url(#paint4_linear)"/>
<path d="M429.185 99.1956L217.575 121.6L228.788 227.29L440.398 204.885L429.185 99.1956Z" fill="url(#paint5_linear)"/>
<path d="M426.497 101.912L220.775 123.693L249.509 394.528L455.231 372.747L426.497 101.912Z" fill="#F5F5F5"/>
<path d="M426.705 101.632L220.509 123.463L231.461 226.689L437.657 204.857L426.705 101.632Z" fill="#1C46DA"/>
<path d="M333.859 245.3L277.925 251.222L278.377 255.483L334.311 249.561L333.859 245.3Z" fill="#BDBDBD"/>
<path d="M335.667 262.348L279.733 268.27L280.185 272.53L336.119 266.608L335.667 262.348Z" fill="#F5F5F5"/>
<path d="M424.824 244.289L278.827 259.747L279.279 264.007L425.276 248.549L424.824 244.289Z" fill="#69F0AE"/>
<path d="M361.359 147.577L305.425 153.499L305.877 157.76L361.811 151.837L361.359 147.577Z" fill="white"/>
<path d="M396.489 153.437L306.425 162.972L306.877 167.233L396.941 157.697L396.489 153.437Z" fill="white"/>
<path opacity="0.2" d="M378.722 167.76L326.8 173.258C325.692 173.375 324.89 174.367 325.007 175.474L325.084 176.2C325.201 177.307 326.195 178.109 327.302 177.991L379.225 172.494C380.332 172.377 381.135 171.385 381.018 170.278L380.941 169.552C380.823 168.445 379.83 167.643 378.722 167.76Z" fill="black"/>
<path d="M255.57 268.676C261.069 268.094 265.055 263.168 264.472 257.675C263.889 252.181 258.959 248.199 253.459 248.782C247.96 249.364 243.974 254.289 244.557 259.783C245.14 265.277 250.071 269.258 255.57 268.676Z" fill="#69F0AE"/>
<path d="M338.233 286.493L282.299 292.416L282.751 296.676L338.685 290.754L338.233 286.493Z" fill="#BDBDBD"/>
<path d="M340.042 303.54L284.108 309.462L284.56 313.723L340.494 307.801L340.042 303.54Z" fill="#F5F5F5"/>
<path d="M429.199 285.482L283.201 300.94L283.653 305.2L429.651 289.742L429.199 285.482Z" fill="#E0E0E0"/>
<path d="M259.944 309.869C265.443 309.287 269.429 304.361 268.846 298.868C268.263 293.374 263.333 289.393 257.833 289.975C252.334 290.557 248.348 295.483 248.931 300.976C249.514 306.47 254.445 310.451 259.944 309.869Z" fill="#E0E0E0"/>
<path d="M342.601 327.687L286.667 333.609L287.119 337.869L343.053 331.947L342.601 327.687Z" fill="#BDBDBD"/>
<path d="M344.409 344.734L288.475 350.656L288.927 354.916L344.861 348.994L344.409 344.734Z" fill="#F5F5F5"/>
<path d="M433.566 326.676L287.568 342.134L288.02 346.394L434.018 330.936L433.566 326.676Z" fill="#E0E0E0"/>
<path d="M264.31 351.062C269.81 350.48 273.795 345.554 273.212 340.061C272.629 334.567 267.699 330.586 262.2 331.168C256.7 331.75 252.715 336.676 253.298 342.169C253.88 347.663 258.811 351.644 264.31 351.062Z" fill="#E0E0E0"/>
<path d="M235.189 172.272C235.779 177.286 237.735 182.042 240.845 186.022C243.956 190.001 248.1 193.051 252.826 194.839C257.553 196.627 262.68 197.083 267.648 196.16C272.617 195.236 277.236 192.967 281.002 189.6C284.768 186.234 287.537 181.899 289.006 177.068C290.474 172.237 290.587 167.096 289.332 162.206C288.076 157.315 285.5 152.863 281.885 149.335C278.27 145.807 273.755 143.338 268.832 142.198L269.667 149.253C269.942 151.703 269.239 154.162 267.71 156.097C266.181 158.032 263.95 159.287 261.501 159.589V159.589C259.041 159.872 256.568 159.171 254.624 157.639C252.679 156.107 251.42 153.868 251.123 151.412L250.287 144.356C245.2 146.891 241.02 150.932 238.318 155.928C235.616 160.924 234.523 166.632 235.189 172.272Z" fill="url(#paint6_linear)"/>
<path d="M289.785 163.58C289.251 158.56 287.347 153.784 284.283 149.772C281.218 145.759 277.109 142.664 272.404 140.823C267.7 138.983 262.579 138.468 257.602 139.335C252.625 140.202 247.981 142.417 244.177 145.739C240.373 149.061 237.555 153.363 236.03 158.175C234.506 162.987 234.332 168.124 235.53 173.028C236.727 177.932 239.249 182.413 242.82 185.983C246.392 189.553 250.876 192.076 255.783 193.275L255.033 186.213C254.779 183.752 255.51 181.29 257.067 179.366C258.624 177.441 260.88 176.211 263.342 175.943V175.943C265.806 175.689 268.27 176.419 270.197 177.975C272.123 179.53 273.355 181.784 273.623 184.244L274.374 191.306C279.486 188.83 283.709 184.838 286.467 179.876C289.225 174.915 290.384 169.223 289.785 163.58V163.58Z" fill="#1C46DA"/>
<path d="M263.077 173.247C268.903 172.63 273.125 167.412 272.507 161.593C271.89 155.773 266.667 151.555 260.841 152.172C255.016 152.789 250.794 158.007 251.411 163.826C252.029 169.646 257.252 173.863 263.077 173.247Z" fill="white" stroke="white" stroke-miterlimit="10"/>
<path d="M263.342 175.942C260.88 176.21 258.623 177.441 257.066 179.365C255.509 181.29 254.778 183.751 255.032 186.213L255.783 193.275C262.02 194.794 268.591 194.102 274.373 191.318L273.623 184.256C273.358 181.794 272.127 179.537 270.201 177.979C268.274 176.421 265.808 175.689 263.342 175.942Z" fill="white" stroke="white" stroke-miterlimit="10"/>
<path d="M251.254 163.253C250.234 161.709 249.65 159.918 249.563 158.069C249.489 156.211 250.145 154.398 251.391 153.016C252.788 151.542 254.824 150.857 256.822 150.486C258.819 150.114 260.849 150.023 262.807 149.371C264.411 148.866 265.898 148.048 267.182 146.964C268.466 145.881 269.522 144.553 270.288 143.059C270.65 144.578 270.802 146.14 270.738 147.701C270.702 148.483 270.505 149.249 270.162 149.952C269.819 150.655 269.335 151.28 268.741 151.79C270.262 150.877 270.275 152.631 270.046 153.713C270.941 154.587 272.886 154.542 273.121 155.774C273.418 156.991 273.418 158.261 273.121 159.478C272.755 160.671 273.493 162.634 272.259 162.849" fill="white"/>
<path d="M251.254 163.253C250.234 161.709 249.65 159.918 249.563 158.069C249.489 156.211 250.145 154.398 251.391 153.016C252.788 151.542 254.824 150.857 256.822 150.486C258.819 150.114 260.849 150.023 262.807 149.371C264.411 148.866 265.898 148.048 267.182 146.964C268.466 145.881 269.522 144.553 270.288 143.059C270.65 144.578 270.802 146.14 270.738 147.701C270.702 148.483 270.505 149.249 270.162 149.952C269.819 150.655 269.335 151.28 268.741 151.79C270.262 150.877 270.275 152.631 270.046 153.713C270.941 154.587 272.886 154.542 273.121 155.774C273.418 156.991 273.418 158.261 273.121 159.478C272.755 160.671 273.493 162.634 272.259 162.849" stroke="white" stroke-miterlimit="10"/>
<path d="M269.29 151.497C269.29 151.497 276.718 151.36 272.638 162.83Z" fill="white"/>
<path d="M356.111 0.260742H143.806V279.101H356.111V0.260742Z" fill="url(#paint7_linear)"/>
<path d="M356.352 0H143.557V106.282H356.352V0Z" fill="url(#paint8_linear)"/>
<path d="M353.394 2.41895H146.52V274.771H353.394V2.41895Z" fill="#F5F5F5"/>
<path d="M353.637 2.16479H146.286V105.969H353.637V2.16479Z" fill="#1C46DA"/>
<path d="M246.143 135.253H189.896V139.537H246.143V135.253Z" fill="#BDBDBD"/>
<path d="M246.143 152.396H189.896V156.68H246.143V152.396Z" fill="#F5F5F5"/>
<path d="M336.711 143.828H189.896V148.112H336.711V143.828Z" fill="#69F0AE"/>
<path d="M283.8 40.9761H227.553V45.2602H283.8V40.9761Z" fill="white"/>
<path d="M318.121 50.4968H227.553V54.781H318.121V50.4968Z" fill="white"/>
<path opacity="0.2" d="M298.944 62.8799H246.731C245.617 62.8799 244.714 63.782 244.714 64.8948V65.6251C244.714 66.7379 245.617 67.64 246.731 67.64H298.944C300.058 67.64 300.961 66.7379 300.961 65.6251V64.8948C300.961 63.782 300.058 62.8799 298.944 62.8799Z" fill="black"/>
<path d="M165.829 150.258C171.359 150.258 175.842 145.779 175.842 140.255C175.842 134.73 171.359 130.252 165.829 130.252C160.298 130.252 155.815 134.73 155.815 140.255C155.815 145.779 160.298 150.258 165.829 150.258Z" fill="#69F0AE"/>
<path d="M246.143 176.68H189.896V180.964H246.143V176.68Z" fill="#BDBDBD"/>
<path d="M246.143 193.823H189.896V198.107H246.143V193.823Z" fill="#F5F5F5"/>
<path d="M336.711 185.254H189.896V189.539H336.711V185.254Z" fill="#E0E0E0"/>
<path d="M165.829 191.684C171.359 191.684 175.842 187.205 175.842 181.681C175.842 176.157 171.359 171.678 165.829 171.678C160.298 171.678 155.815 176.157 155.815 181.681C155.815 187.205 160.298 191.684 165.829 191.684Z" fill="#E0E0E0"/>
<path d="M246.143 218.113H189.896V222.397H246.143V218.113Z" fill="#BDBDBD"/>
<path d="M246.143 235.249H189.896V239.533H246.143V235.249Z" fill="#F5F5F5"/>
<path d="M336.711 226.681H189.896V230.965H336.711V226.681Z" fill="#E0E0E0"/>
<path d="M165.829 233.11C171.359 233.11 175.842 228.632 175.842 223.108C175.842 217.583 171.359 213.105 165.829 213.105C160.298 213.105 155.815 217.583 155.815 223.108C155.815 228.632 160.298 233.11 165.829 233.11Z" fill="#E0E0E0"/>
<path d="M155.757 52.251C155.821 57.2976 157.269 62.2301 159.946 66.5107C162.623 70.7913 166.424 74.2558 170.936 76.5266C175.448 78.7974 180.497 79.7873 185.534 79.3885C190.57 78.9897 195.4 77.2174 199.498 74.2649C203.596 71.3123 206.803 67.2928 208.771 62.6444C210.739 57.996 211.392 52.8971 210.659 47.9035C209.926 42.9099 207.834 38.2131 204.613 34.3253C201.391 30.4374 197.163 27.5075 192.389 25.855L192.474 32.9561C192.504 35.4384 191.545 37.831 189.81 39.6077C188.074 41.3843 185.703 42.3998 183.218 42.4307C180.742 42.4534 178.358 41.4965 176.586 39.769C174.814 38.0414 173.798 35.6836 173.76 33.2104L173.675 26.1093C168.361 28.0991 163.79 31.6762 160.584 36.3538C157.378 41.0314 155.693 46.5823 155.757 52.251Z" fill="url(#paint9_linear)"/>
<path d="M210.946 49.3489C210.944 44.3017 209.555 39.3519 206.93 35.0392C204.305 30.7264 200.546 27.2162 196.062 24.8911C191.577 22.566 186.54 21.5153 181.499 21.8535C176.458 22.1917 171.606 23.9058 167.473 26.809C163.341 29.7122 160.085 33.6931 158.061 38.3177C156.037 42.9423 155.323 48.0331 155.996 53.0353C156.669 58.0375 158.704 62.7591 161.879 66.6854C165.054 70.6117 169.247 73.592 174.001 75.3015V68.1938C174.008 65.7194 174.995 63.3484 176.746 61.5987C178.498 59.849 180.871 58.863 183.348 58.8561C185.825 58.863 188.199 59.849 189.95 61.5987C191.701 63.3484 192.689 65.7194 192.695 68.1938V75.2949C198.04 73.3711 202.66 69.8472 205.926 65.2039C209.193 60.5606 210.945 55.0239 210.946 49.3489Z" fill="#1C46DA"/>
<path d="M183.362 56.1565C189.221 56.1565 193.97 51.4125 193.97 45.5603C193.97 39.7082 189.221 34.9641 183.362 34.9641C177.504 34.9641 172.755 39.7082 172.755 45.5603C172.755 51.4125 177.504 56.1565 183.362 56.1565Z" fill="white" stroke="white" stroke-miterlimit="10"/>
<path d="M183.342 58.8564C180.865 58.8633 178.491 59.8493 176.74 61.599C174.989 63.3487 174.002 65.7198 173.995 68.1942V75.2952C180.038 77.4592 186.646 77.4592 192.689 75.2952V68.1942C192.682 65.7198 191.695 63.3487 189.944 61.599C188.192 59.8493 185.819 58.8633 183.342 58.8564Z" fill="white" stroke="white" stroke-miterlimit="10"/>
<path d="M172.664 44.9674C171.814 43.3232 171.424 41.4805 171.535 39.6334C171.655 37.7759 172.499 36.0394 173.884 34.795C175.431 33.4908 177.527 33.0148 179.55 32.8388C181.574 32.6627 183.623 32.7736 185.621 32.3823C187.268 32.0486 188.832 31.3913 190.222 30.4488C191.613 29.5063 192.802 28.2973 193.721 26.8918C193.92 28.4407 193.905 30.0095 193.676 31.5542C193.557 32.3269 193.281 33.0673 192.866 33.7299C192.451 34.3925 191.904 34.9635 191.261 35.4079C192.873 34.6646 192.697 36.4056 192.351 37.4554C193.147 38.4205 195.092 38.577 195.19 39.829C195.352 41.0717 195.214 42.3353 194.785 43.5132C194.296 44.6609 194.818 46.6888 193.571 46.7736" fill="white"/>
<path d="M172.664 44.9674C171.814 43.3232 171.424 41.4805 171.535 39.6334C171.655 37.7759 172.499 36.0394 173.884 34.795C175.431 33.4908 177.527 33.0148 179.55 32.8388C181.574 32.6627 183.623 32.7736 185.621 32.3823C187.268 32.0486 188.832 31.3913 190.222 30.4488C191.613 29.5063 192.802 28.2973 193.721 26.8918C193.92 28.4407 193.905 30.0095 193.676 31.5542C193.557 32.3269 193.281 33.0673 192.866 33.7299C192.451 34.3925 191.904 34.9635 191.261 35.4079C192.873 34.6646 192.697 36.4056 192.351 37.4554C193.147 38.4205 195.092 38.577 195.19 39.829C195.352 41.0717 195.214 42.3353 194.785 43.5132C194.296 44.6609 194.818 46.6888 193.571 46.7736" stroke="white" stroke-miterlimit="10"/>
<path d="M191.834 35.1794C191.834 35.1794 199.237 35.8315 193.969 46.7994Z" fill="white"/>
<path d="M124.413 198.713L77.9572 166.22H13.6357V198.713V214.63V486.539H415.635V198.713H124.413Z" fill="url(#paint10_linear)"/>
<path d="M17.075 202V217.454V481.394H412.88V202H126.149" fill="white"/>
<path d="M126.149 202L80.4042 170.459H17.075V202" fill="#BDBDBD"/>
<path d="M323.989 243.23H105.972V440.157H323.989V243.23Z" fill="url(#paint11_linear)"/>
<path d="M322.004 244.665H108.936V436.577H322.004V244.665Z" fill="white"/>
<path d="M258.838 388.304H175.065V395.157H258.838V388.304Z" fill="#BDBDBD"/>
<path d="M306.998 402.017H123.942V408.87H306.998V402.017Z" fill="#E0E0E0"/>
<path d="M306.998 415.73H123.942V422.584H306.998V415.73Z" fill="#E0E0E0"/>
<path d="M163.342 318.043C163.461 327.572 166.197 336.886 171.25 344.969C176.304 353.052 183.481 359.594 192 363.883C200.52 368.172 210.054 370.042 219.564 369.29C229.074 368.539 238.195 365.194 245.933 359.62C253.671 354.046 259.729 346.458 263.447 337.681C267.165 328.905 268.4 319.277 267.018 309.848C265.636 300.418 261.689 291.549 255.609 284.206C249.528 276.863 241.546 271.328 232.533 268.205L232.696 281.618C232.74 286.288 230.931 290.786 227.666 294.129C224.4 297.472 219.943 299.388 215.268 299.459C210.592 299.502 206.09 297.695 202.743 294.433C199.397 291.171 197.479 286.718 197.409 282.048L197.246 268.635C187.191 272.383 178.54 279.14 172.472 287.982C166.404 296.825 163.216 307.323 163.342 318.043Z" fill="url(#paint12_linear)"/>
<path d="M267.586 312.572C267.584 303.04 264.963 293.692 260.008 285.546C255.053 277.4 247.954 270.769 239.486 266.377C231.017 261.985 221.505 259.999 211.984 260.637C202.464 261.274 193.301 264.511 185.496 269.993C177.69 275.476 171.541 282.993 167.719 291.727C163.897 300.461 162.549 310.075 163.821 319.522C165.093 328.969 168.937 337.886 174.933 345.3C180.93 352.714 188.849 358.342 197.827 361.569V348.156C197.846 343.492 199.709 339.025 203.01 335.727C206.311 332.43 210.783 330.569 215.451 330.55V330.55C220.119 330.569 224.591 332.43 227.892 335.727C231.193 339.025 233.056 343.492 233.075 348.156V361.569C243.177 357.944 251.912 351.293 258.089 342.524C264.265 333.755 267.582 323.295 267.586 312.572Z" fill="#BDBDBD"/>
<path d="M217.226 321.349C217.226 319.62 215.824 318.219 214.093 318.219C212.363 318.219 210.96 319.62 210.96 321.349V337.162C210.96 338.89 212.363 340.292 214.093 340.292C215.824 340.292 217.226 338.89 217.226 337.162V321.349Z" fill="white" stroke="white" stroke-miterlimit="10"/>
<path d="M214.126 321.186C225.189 321.186 234.158 312.226 234.158 301.174C234.158 290.121 225.189 281.161 214.126 281.161C203.062 281.161 194.093 290.121 194.093 301.174C194.093 312.226 203.062 321.186 214.126 321.186Z" fill="white" stroke="white" stroke-miterlimit="10"/>
<path d="M214.093 326.285C209.424 326.304 204.953 328.165 201.652 331.463C198.351 334.76 196.488 339.228 196.469 343.891V357.304C207.878 361.389 220.353 361.389 231.763 357.304V343.917C231.751 339.241 229.884 334.761 226.573 331.456C223.261 328.151 218.774 326.292 214.093 326.285Z" fill="white" stroke="white" stroke-miterlimit="10"/>
<path d="M193.923 300.065C192.318 296.962 191.58 293.484 191.788 289.997C192.019 286.492 193.612 283.216 196.227 280.868C199.145 278.384 203.1 277.503 206.926 277.197C210.751 276.89 214.621 277.073 218.381 276.336C221.49 275.707 224.443 274.467 227.069 272.688C229.694 270.91 231.94 268.627 233.675 265.975C233.917 268.909 234.158 271.889 233.59 274.784C233.022 277.679 231.534 280.516 229.021 282.061C232.063 280.653 231.73 283.952 231.071 285.928C232.578 287.747 236.24 288.047 236.43 290.401C236.619 292.755 236.586 295.188 235.666 297.359C234.745 299.53 235.731 303.352 233.381 303.521" fill="white"/>
<path d="M193.923 300.065C192.318 296.962 191.58 293.484 191.788 289.997C192.019 286.492 193.612 283.216 196.227 280.868C199.145 278.384 203.1 277.503 206.926 277.197C210.751 276.89 214.621 277.073 218.381 276.336C221.49 275.707 224.443 274.467 227.069 272.688C229.694 270.91 231.94 268.627 233.675 265.975C233.917 268.909 234.158 271.889 233.59 274.784C233.022 277.679 231.534 280.516 229.021 282.061C232.063 280.653 231.73 283.952 231.071 285.928C232.578 287.747 236.24 288.047 236.43 290.401C236.619 292.755 236.586 295.188 235.666 297.359C234.745 299.53 235.731 303.352 233.381 303.521" stroke="white" stroke-miterlimit="10"/>
<path d="M230.131 281.579C230.131 281.579 244.106 282.798 234.158 303.521Z" fill="white"/>
<defs>
<linearGradient id="paint0_linear" x1="177.316" y1="327.802" x2="102.095" y2="60.0754" gradientUnits="userSpaceOnUse">
<stop stop-color="#808080" stop-opacity="0.25"/>
<stop offset="0.54" stop-color="#808080" stop-opacity="0.12"/>
<stop offset="1" stop-color="#808080" stop-opacity="0.1"/>
</linearGradient>
<linearGradient id="paint1_linear" x1="130.789" y1="164.241" x2="102.644" y2="61.7454" gradientUnits="userSpaceOnUse">
<stop stop-color="#B3B3B3" stop-opacity="0.25"/>
<stop offset="0.54" stop-color="#B3B3B3" stop-opacity="0.1"/>
<stop offset="1" stop-color="#B3B3B3" stop-opacity="0.05"/>
</linearGradient>
<linearGradient id="paint2_linear" x1="60.609" y1="157.713" x2="43.3815" y2="106.645" gradientUnits="userSpaceOnUse">
<stop stop-opacity="0.12"/>
<stop offset="0.55" stop-opacity="0.09"/>
<stop offset="1" stop-opacity="0.02"/>
</linearGradient>
<linearGradient id="paint3_linear" x1="81410.5" y1="199744" x2="81410.5" y2="80031.7" gradientUnits="userSpaceOnUse">
<stop stop-color="#808080" stop-opacity="0.25"/>
<stop offset="0.54" stop-color="#808080" stop-opacity="0.12"/>
<stop offset="1" stop-color="#808080" stop-opacity="0.1"/>
</linearGradient>
<linearGradient id="paint4_linear" x1="175700" y1="170169" x2="163146" y2="51592.5" gradientUnits="userSpaceOnUse">
<stop stop-color="#808080" stop-opacity="0.25"/>
<stop offset="0.54" stop-color="#808080" stop-opacity="0.12"/>
<stop offset="1" stop-color="#808080" stop-opacity="0.1"/>
</linearGradient>
<linearGradient id="paint5_linear" x1="160831" y1="26686.4" x2="159007" y2="9460.66" gradientUnits="userSpaceOnUse">
<stop stop-color="#B3B3B3" stop-opacity="0.25"/>
<stop offset="0.54" stop-color="#B3B3B3" stop-opacity="0.1"/>
<stop offset="1" stop-color="#B3B3B3" stop-opacity="0.05"/>
</linearGradient>
<linearGradient id="paint6_linear" x1="-35392.4" y1="-13604.8" x2="-36103.8" y2="-18046.4" gradientUnits="userSpaceOnUse">
<stop stop-opacity="0.12"/>
<stop offset="0.55" stop-opacity="0.09"/>
<stop offset="1" stop-opacity="0.02"/>
</linearGradient>
<linearGradient id="paint7_linear" x1="81439.7" y1="119352" x2="81439.7" y2="111.802" gradientUnits="userSpaceOnUse">
<stop stop-color="#808080" stop-opacity="0.25"/>
<stop offset="0.54" stop-color="#808080" stop-opacity="0.12"/>
<stop offset="1" stop-color="#808080" stop-opacity="0.1"/>
</linearGradient>
<linearGradient id="paint8_linear" x1="81626.9" y1="17322.8" x2="81626.9" y2="0" gradientUnits="userSpaceOnUse">
<stop stop-color="#B3B3B3" stop-opacity="0.25"/>
<stop offset="0.54" stop-color="#B3B3B3" stop-opacity="0.1"/>
<stop offset="1" stop-color="#B3B3B3" stop-opacity="0.05"/>
</linearGradient>
<linearGradient id="paint9_linear" x1="-40175.2" y1="-25986.1" x2="-40399.2" y2="-30412.6" gradientUnits="userSpaceOnUse">
<stop stop-opacity="0.12"/>
<stop offset="0.55" stop-opacity="0.09"/>
<stop offset="1" stop-opacity="0.02"/>
</linearGradient>
<linearGradient id="paint10_linear" x1="132195" y1="239169" x2="132195" y2="81818.6" gradientUnits="userSpaceOnUse">
<stop stop-color="#808080" stop-opacity="0.25"/>
<stop offset="0.54" stop-color="#808080" stop-opacity="0.12"/>
<stop offset="1" stop-color="#808080" stop-opacity="0.1"/>
</linearGradient>
<linearGradient id="paint11_linear" x1="71907.6" y1="133171" x2="71907.6" y2="73698.8" gradientUnits="userSpaceOnUse">
<stop stop-color="#808080" stop-opacity="0.25"/>
<stop offset="0.54" stop-color="#808080" stop-opacity="0.12"/>
<stop offset="1" stop-color="#808080" stop-opacity="0.1"/>
</linearGradient>
<linearGradient id="paint12_linear" x1="-70960.5" y1="-4567.97" x2="-71759.5" y2="-20347.7" gradientUnits="userSpaceOnUse">
<stop stop-opacity="0.12"/>
<stop offset="0.55" stop-opacity="0.09"/>
<stop offset="1" stop-opacity="0.02"/>
</linearGradient>
</defs>
</svg>
