<?xml version="1.0" standalone="no"?>
<!DOCTYPE svg PUBLIC "-//W3C//DTD SVG 20010904//EN"
 "http://www.w3.org/TR/2001/REC-SVG-20010904/DTD/svg10.dtd">
<svg version="1.0" xmlns="http://www.w3.org/2000/svg"
 width="252.000000pt" height="226.000000pt" viewBox="0 0 252.000000 226.000000"
 preserveAspectRatio="xMidYMid meet">

<g transform="translate(0.000000,226.000000) scale(0.100000,-0.100000)"
fill="#35b234" stroke="none">
<path d="M0 1130 l0 -1130 1260 0 1260 0 0 1130 0 1130 -1260 0 -1260 0 0
-1130z m1903 657 c84 -25 134 -53 188 -107 57 -57 93 -125 121 -228 19 -67 22
-105 22 -287 0 -159 -4 -227 -16 -280 -48 -209 -132 -312 -296 -367 -64 -21
-87 -22 -459 -26 l-393 -3 0 530 0 531 145 0 145 0 0 -435 0 -435 178 0 c171
0 180 1 229 25 110 55 153 182 153 450 0 271 -43 387 -165 442 -36 16 -79 18
-402 21 l-363 3 0 -565 0 -566 -150 0 -150 0 0 565 0 565 -215 0 -215 0 0 88
c0 49 3 92 7 96 4 4 361 5 793 4 704 -3 791 -6 843 -21z"/>
</g>
</svg>
